<svg xmlns="http://www.w3.org/2000/svg" xmlns:xlink="http://www.w3.org/1999/xlink" viewBox="0 0 2001.67 9077"><defs><clipPath id="a"><rect x="0.4" y="529.1" width="2001" height="8548" fill="none"/></clipPath><linearGradient id="b" x1="1733.29" y1="10417.66" x2="11704.29" y2="10417.66" gradientTransform="translate(-5717.96 -5922.16)" gradientUnits="userSpaceOnUse"><stop offset="0" stop-color="#6a9b6c"/><stop offset="0.28" stop-color="#6a9b6c"/><stop offset="0.3" stop-color="#73a06a"/><stop offset="0.33" stop-color="#8dac65"/><stop offset="0.36" stop-color="#b6c15d"/><stop offset="0.4" stop-color="#efdd52"/><stop offset="0.4" stop-color="#f3df51"/><stop offset="0.58" stop-color="#f3df51"/><stop offset="0.7" stop-color="#aec53e"/><stop offset="1" stop-color="#aec53e"/></linearGradient></defs><path d="M413.86,7396.3a34.66,34.66,0,0,1-9.67-15.15,55.7,55.7,0,0,1,14.77,5l9.21-12.3a35.59,35.59,0,0,1,10,11,72,72,0,0,0,14-8.35,44.15,44.15,0,0,1-2.05,19" fill="none" stroke="#000" stroke-linecap="round" stroke-linejoin="round" stroke-width="3"/><path d="M2012.52,161.69,2012,662.6h-1593l.08-245s197-201.57,751.84-311S2012.52,161.69,2012.52,161.69Z" fill="#9bbe6c" stroke="#000" stroke-miterlimit="10" stroke-width="3"/><path d="M.83,348.42c8.77-5,448.51-232,1085.47-181s925.53,213,925.53,213l-2.74,282.18H3.94Z" fill="#8cb96c" stroke="#000" stroke-miterlimit="10" stroke-width="3"/><path d="M2014.9,496.56v166H246.5C231.71,633.78,198,515,506.66,333.42c9.64-5.67,249-101,485-67s274,41,351,25C1418.73,275.61,1779.7,226.92,2014.9,496.56Z" fill="#78af6c" stroke="#000" stroke-miterlimit="10" stroke-width="3"/><path d="M1256.9,662.6H-7.1V215.16c236.53,10.59,698,57.39,973.06,254.76,14.34,10.29,28.83,20.36,43.58,30.06Z" fill="#78a56c" stroke="#000" stroke-miterlimit="10" stroke-width="3"/><path d="M-8.1,2349.6l1-1843c9.42-3.37,815.66-127,1077-129,274.9-2,733.88,15.73,946.4,150.56-6,596.71-12.1,1224.69-18.15,1821.4Z" fill="#6a9b6c" stroke="#000" stroke-miterlimit="10" stroke-width="3"/><path d="M470.05,7147.51c7.34-7.51,20.15-8.86,28.89-3,1.66,1.11,3.32,2.48,5.31,2.55,4.49.16,6.5-5.94,10.66-7.62,4.68-1.9,9.51,2.43,14.54,3,4.75.49,9.09-2.46,13.62-4s10.95-.54,12,4.12" fill="none" stroke="#000" stroke-miterlimit="10" stroke-width="3"/><path d="M469.79,6913.16a33.93,33.93,0,0,1,30.3-2.32,17.52,17.52,0,0,0,5.15,1.7c2.27.2,4.46-.72,6.65-1.36a29.29,29.29,0,0,1,27.49,6.32" fill="none" stroke="#000" stroke-miterlimit="10" stroke-width="3"/><path d="M541.37,6870a20.23,20.23,0,0,1,20.42-2.08c3-4.62,10.37-5.48,14.31-1.67" fill="none" stroke="#000" stroke-miterlimit="10" stroke-width="3"/><g clip-path="url(#a)"><rect x="-3984.67" y="3486.5" width="9971" height="2018" transform="translate(5496.33 3494.67) rotate(90)" fill="url(#b)"/></g><path d="M443.84,4185.64l.91.91a36.36,36.36,0,0,1,10.65,25.71v32h0" fill="#76a780" stroke="#000" stroke-miterlimit="10" stroke-width="3"/><path d="M437.58,4248c.33-11.32,0-52.53,0-64.8" fill="none" stroke="#000" stroke-miterlimit="10" stroke-width="3"/><path d="M1045.79,206.7a62.25,62.25,0,0,1,25.64,3.87c4.39,1.66,8.61,3.81,13.14,5.05,12.11,3.29,25-.34,37.5,1.11" fill="none" stroke="#000" stroke-linecap="round" stroke-linejoin="round" stroke-width="3"/><path d="M833.72,320.81c18.78-10.53,44.15,4.92,63.29-4.93" fill="none" stroke="#000" stroke-linecap="round" stroke-linejoin="round" stroke-width="3"/><path d="M913,312.56a31.1,31.1,0,0,1,11.92-.74" fill="none" stroke="#000" stroke-linecap="round" stroke-linejoin="round" stroke-width="3"/><path d="M117.39,259.6c3.81.09,7.61.36,11.42.62L167.86,263" fill="none" stroke="#000" stroke-linecap="round" stroke-linejoin="round" stroke-width="3"/><path d="M628.69,344.94A80.83,80.83,0,0,1,667,351" fill="none" stroke="#000" stroke-linecap="round" stroke-linejoin="round" stroke-width="3"/><path d="M1292.54,332.65c9.4-4.7,20.6-.33,31.11-.43,13.37-.13,25.82-7.66,39.19-7.94" fill="none" stroke="#000" stroke-linecap="round" stroke-linejoin="round" stroke-width="3"/><path d="M936.21,7852.26a34.77,34.77,0,0,1-9.68-15.16,55.43,55.43,0,0,1,14.78,5l9.2-12.31a35.47,35.47,0,0,1,10,11,72.09,72.09,0,0,0,14-8.35,44.46,44.46,0,0,1-2,19" fill="none" stroke="#000" stroke-linecap="round" stroke-linejoin="round" stroke-width="3"/><path d="M936.21,7852.26a34.77,34.77,0,0,1-9.68-15.16,55.43,55.43,0,0,1,14.78,5l9.2-12.31a35.47,35.47,0,0,1,10,11,72.09,72.09,0,0,0,14-8.35,44.46,44.46,0,0,1-2,19" fill="none" stroke="#000" stroke-linecap="round" stroke-linejoin="round" stroke-width="3"/><path d="M1335.28,8469.38a38.38,38.38,0,0,1-11.67-16.65,72,72,0,0,1,17.73,5.56l10.94-13.41a40.84,40.84,0,0,1,12.07,12.12,87.29,87.29,0,0,0,16.7-9.06,44.26,44.26,0,0,1-2.34,20.82" fill="none" stroke="#000" stroke-linecap="round" stroke-linejoin="round" stroke-width="3"/><path d="M306.34,7718a48.13,48.13,0,0,1-13.4-21,77.72,77.72,0,0,1,20.47,6.92l12.75-17A49.35,49.35,0,0,1,340,7702.16a99.57,99.57,0,0,0,19.38-11.57,61.06,61.06,0,0,1-2.84,26.37" fill="none" stroke="#000" stroke-linecap="round" stroke-linejoin="round" stroke-width="3"/><path d="M82.88,7374a38.35,38.35,0,0,1-11.67-16.64,71.49,71.49,0,0,1,17.72,5.55l10.95-13.41a40.92,40.92,0,0,1,12.06,12.12,87,87,0,0,0,16.71-9.05,44.28,44.28,0,0,1-2.34,20.82" fill="none" stroke="#000" stroke-linecap="round" stroke-linejoin="round" stroke-width="3"/><path d="M1006.41,7015.61A38.24,38.24,0,0,1,994.73,6999a72,72,0,0,1,17.73,5.55l10.95-13.41a41.07,41.07,0,0,1,12.06,12.13,87.68,87.68,0,0,0,16.71-9.06,44.42,44.42,0,0,1-2.35,20.82" fill="none" stroke="#000" stroke-linecap="round" stroke-linejoin="round" stroke-width="3"/><path d="M1212.41,6721.61a38.24,38.24,0,0,1-11.68-16.64,72,72,0,0,1,17.73,5.55l11-13.41a41.07,41.07,0,0,1,12.06,12.13,87.68,87.68,0,0,0,16.71-9.06,44.42,44.42,0,0,1-2.35,20.82" fill="none" stroke="#000" stroke-linecap="round" stroke-linejoin="round" stroke-width="3"/><path d="M783.9,853.6C500,951.15,243.32,1002.07,276.32,1176c13.58,71.56,64,148.69,240.58,177.56,375,61.32,1015.68,187.5,128.94,522-57.65,17.17-801.17,274,118.88,474q56.32,12.24,121.12,24.18c226.25,32.85,588.06,58.82,588.06,147.82,0,72-161.94,98.11-457.06,164.31-350,84.08-1758,474-338,716.75,212.15,38,782.06,70.94,782.06,197.94,0,98.18-206.17,128.51-516.06,214C642.25,3891.52-378,4223.08,651.26,4594q28.18,10.16,56.06,21.12C987.53,4726,2037,4925,858.84,5245c-380,103.21-1597,562.26-73,838.65,319,61,1190.95,75.36-82.94,392-307,77.77-1093.06,427.74,8.94,570.66,206,30.48,970.06,50.94,467.06,327.34-453,255.74-950.67,510.34-1201,645.21V9086.6H368.17C938.41,8627,1742.9,7646.6,1742.9,7646.6c470-634.77-361.94-751.94-620-768-1075-92.48-174-190,159-323,784-304.77,507.06-585.53,39-630-1183-156-851.06-247.66-205.06-484.12C2270.57,5008,1648.68,4694.83,1306.48,4562q-94.9-36.84-192.81-65.13C136.44,4213,794,4156.12,1463.9,3908.6c323-137,355-211,355-316,0-191-363.54-249.75-657.52-310.3q-99.5-20.49-200.56-31.71c-1125-125.76,150.08-358,365-433.31,412.11-111.21,479.52-208,479.06-286.68-.45-75.4-56.92-134-214.87-181-121.21-36.07-256.91-64-358.19-84.06C795.21,2198,639.92,2181.69,602.9,2110.6c-25-48,190-109,307-161,901-400,166.84-634.3,49.21-654.2-8.82-1.49-17.61-3.16-26.38-4.92-796.43-159.43-261.37-218,163.79-375.63,858.38-318.25-111.9-533.74-111.9-533.74-81.51,5.19-185.77,15.76-295.93,28.67C731.93,398,1180,552.55,1225.9,632.6,1280.9,728.6,1032,768.36,783.9,853.6Z" fill="#fbf8ef" stroke="#000" stroke-miterlimit="10" stroke-width="3"/><path d="M-7.11,9081.6V8049.77c73.33-39.42,182.74-96.71,290-153.17,267.91-141,553.74-306.32,872-486,64-35.18,142.3-92.15,170.86-122.13,28.9-30.33,40.76-59.38,35.27-86.34-5.62-27.55-28.16-50.67-68.91-70.68-32.5-16-76-29.7-133-42C1057,7067.36,933.78,7055,834.77,7045c-48.7-4.9-90.76-9.13-120.74-13.57l-.27,0c-194.56-25.24-340.63-58.46-434.15-98.75-77.85-33.54-118.55-71.19-121-111.89-3.33-55.94,66.57-125.07,196.84-194.65,123.57-66,266.37-114.49,351.11-136,606.74-150.81,685.61-222.13,682.72-272-3.73-64.5-155.62-88.66-405.32-120.8-72.94-9.38-141.83-18.25-195.33-28.47l-.14,0c-257.38-46.68-450.26-101.34-573.3-162.48-104.65-52-159-108.43-161.55-167.69-3.72-86.64,102.48-186.76,307.12-289.52,170.91-85.83,377.23-155.84,502-189.72,192.27-52.22,336.1-104.42,427.49-155.16,87-48.27,129.67-96.15,130.58-146.38.6-33.07-17.67-65.76-54.3-97.15-30.32-26-73-51.42-130.41-77.78-103.57-47.54-233.26-87.88-347.67-123.47-71-22.08-132.28-41.15-175.63-58.29-17.71-7-36.19-14-56.49-21.29-158.09-57-275.27-116-348.31-175.46-62.7-51.05-93.25-102.73-90.78-153.6,2.24-46.09,31.4-93.72,86.68-141.6,48.5-42,117-84.13,203.65-125.2,180.71-85.66,383.2-140.21,441-154.89l.29-.08c58.67-16.19,114.75-30.69,164.23-43.48,226.27-58.51,362.84-93.82,362.84-185,0-29-21.77-54.89-64.72-76.86-34.3-17.54-82.32-33.29-146.81-48.14-116.46-26.82-262.06-45-390.52-61-77.1-9.62-143.68-17.94-192.36-26.65l-.12,0c-213.88-36.57-374.09-78.5-476.2-124.64-86.88-39.27-131.66-81-133.09-124-1.34-40.24,34.67-85.09,107-133.29,63.68-42.43,155-86.77,271.49-131.8,232.7-90,494.7-155.58,569.65-173.59,34.5-7.74,66.78-14.84,98-21.71,246.78-54.3,370.65-81.56,370.65-157.21,0-23.26-16.6-43.67-49.35-60.67-25.62-13.3-61.68-25.21-110.24-36.4-88-20.28-200.15-34.42-308.61-48.09-47.18-6-91.75-11.56-132.41-17.46-42.15-7.75-82.64-15.84-120.38-24-158.7-34.5-277-72.87-351.75-114-60.74-33.48-92.21-68.25-93.53-103.34-1.75-46.28,48.69-98.43,145.87-150.83C545,1925.49,627.3,1896.81,650.12,1890l1-.34c162.1-61.16,282.25-119,357.11-171.9,35.49-25.09,61.84-49.81,78.31-73.47,16.66-24,24-47.72,21.67-70.66-6-60.56-76.81-111.2-216.36-154.81-113.11-35.35-251.8-60.3-372.54-80-77.37-12.65-135.9-36-174-69.26-29.08-25.45-46.85-57-54.31-96.3-6.09-32.08-1.56-60,13.86-85.43,14.54-24,38.83-46,74.25-67.3,69.23-41.66,169.46-74.12,285.52-111.7,40.21-13,81.79-26.49,124.08-41,58.47-20.09,116.07-37.37,171.78-54.08,69.26-20.78,134.67-40.4,183.94-60.66,58.45-24,89.32-46.79,100.07-73.74,6.91-17.33,5-35.56-5.65-54.16C1227,604.4,1195,580.44,1141,551.89c-43.66-23.09-101-48.65-165.81-73.92-60.9-23.74-175.11-59-231.48-75.22C820.87,394.52,896.92,387,949.9,383.6c15.8,3.64,153.95,41.09,258.31,82.81,65.57,26.21,118.11,53.82,156.16,82.05,45.16,33.5,69.2,67.33,71.47,100.55,2.44,35.76-20.48,73.35-68.14,111.74-57.31,46.17-150.3,93.29-276.4,140-87.58,32.47-181.57,61.24-264.5,86.63C615.07,1052.25,504.71,1088.69,507.51,1145c1.45,29.21,33.73,53.85,104.67,79.87,67.78,24.86,171.67,51.15,317.61,80.37,10.3,2.06,18.83,3.65,26.82,5,37.47,6.33,127.93,32.31,211.14,75,71.53,36.73,158.88,97.11,168.83,176.13,6.42,51.06-20.29,105.66-79.4,162.28-71.46,68.47-190.36,139.88-353.37,212.25-30.68,13.64-67.64,27.69-106.77,42.57-120.89,46-195.27,76.48-208.87,112.21a32,32,0,0,0,1.42,26.86c18.66,35.83,60.89,58.95,145.74,79.81,79.63,19.57,194.6,37.14,368.62,63.74,39.65,6.06,80.64,12.33,125.28,19.24,111.78,22.16,241.49,49.43,356.52,83.66,75.07,22.34,127.68,47.43,160.85,76.72,29.33,25.89,43.08,54.49,43.29,90,.17,27.25-7.79,69.21-78.42,118.78-35.07,24.61-83,49.25-142.47,73.26-66.45,26.82-149.57,53.76-247.07,80.07l-1.06.33c-38.68,13.55-114.29,32.79-201.84,55.06-126.65,32.23-284.27,72.33-408.73,115.06-157,53.9-225.56,99-222.29,146.28,2.31,33.46,39.32,60.07,116.5,83.76,76.7,23.55,196,44.48,354.64,62.21,67.1,7.49,134.12,18.09,199.2,31.49,21.05,4.34,42.9,8.75,64,13,141.17,28.53,287.14,58,399.25,102.61,59.63,23.71,103.34,49.09,133.64,77.6,32.72,30.78,48.62,64.27,48.62,102.38,0,52.57-8.51,91.59-52,135.44-49.21,49.59-142.48,102.54-293.5,166.61-134.69,49.76-270.1,92.17-389.59,129.6-131.31,41.13-244.71,76.66-326.81,111.92-96.48,41.45-139.31,78.73-138.87,120.89.41,39.48,39.48,77.06,122.95,118.26,81.41,40.18,206.83,84.65,383.43,136,65.62,19.06,130.07,40.83,191.57,64.7,131.58,51.08,232.52,101.28,308.58,153.49,105.82,72.62,159.26,147.12,158.85,221.41-.39,69.39-47.79,141.66-140.89,214.81-109.45,86-283.4,174.05-517,261.75l.12,0c-30.53,11.17-60.44,22.05-89.37,32.58-146.38,53.25-272.8,99.24-361.28,140.31C555.4,5648.87,512.61,5686.53,517,5726.24c2.47,22.57,20.56,42.54,55.31,61,32,17.05,78.64,33.36,142.59,49.87,126.13,32.55,323.72,66.35,604.08,103.32l.55.06c121.08,11.51,227,38.37,306.41,77.69,79.7,39.48,125.73,88.44,133.11,141.58,3.54,25.49-1.85,52.33-16,79.78-15.63,30.27-42,61.51-78.36,92.87-81.64,70.41-212.24,140.78-388.16,209.17l-.13.05c-87.48,34.94-213.72,67.19-335.79,98.38-88.77,22.67-172.61,44.09-234.76,64.93-79.93,26.8-111.63,48.6-109.44,75.25,2.25,27.35,39.51,46,128.6,64.2,84.95,17.4,214.7,33.46,396.67,49.12l.35,0c63.67,4,229,18.55,388.65,68.3,80.25,25,148.34,55.6,202.38,90.92,62.69,41,107,88.75,131.85,142,25.66,55.12,31,117.69,15.82,186-17.14,77.2-60.74,163.53-129.6,256.58-8,9.77-220,248.71-484.93,542.94-158,175.46-307.8,334.56-445.29,472.87-169.87,170.89-353.23,324.29-482,428.42Z" fill="#47464c" stroke="#000" stroke-miterlimit="10" stroke-width="3"/><path d="M1858.17,7739.38c4.19,2.4,7.79,5.86,12.26,7.68,17.35,7.06,34.6-13.16,53.33-12.76,15.57.33,28.18,14.86,43.75,15,13.44.16,24.75-10.4,38-12.56,17.63-2.88,33.94,9.31,51.44,12.89,15.14,3.08,28.62,5.68,41.11-3.41,2.47-1.79,11.78-1.61,11.83-4.66V7189.74a9.56,9.56,0,0,0-11.75-9.48,47.77,47.77,0,0,0-31.06,25.11,9.55,9.55,0,0,1-10.23,5.28,18.16,18.16,0,0,0-12.27,2.61c-5.92,3.75-9.65,10.11-12.55,16.49a111.36,111.36,0,0,0-8.79,29.93,9.64,9.64,0,0,1-7.83,8.12c-9.11,1.65-17.36,8.09-22.6,15.95-4.24,6.35-6.9,13.51-9,20.89a9.55,9.55,0,0,1-11.16,6.88c-5.76-1.28-12.77.37-18.14,3.39a53.45,53.45,0,0,0-25.14,32.87,9.76,9.76,0,0,1-6.82,7c-6.72,1.88-11.93,9.57-13.8,16.88-5.49,21.38,4.86,45.82,24,56.78,2.63,1.5,5.6,2.8,8.61,2.37,3.62-.52,6.4-3.41,9.75-4.9,6.45-2.87,13.85-.22,20.89.3,9.8.73,19.43-2.77,29.25-3.21a31.2,31.2,0,0,1,13.17,2.26,63.86,63.86,0,0,0,26.11,4.54,21.61,21.61,0,0,1,11.81,3.13,21.89,21.89,0,0,1,8.33,10.18,9.58,9.58,0,0,1-9.58,13.28,29.34,29.34,0,0,0-21.18,7.17c-6.57,5.74-10.65,13.7-13.14,22.15a9.58,9.58,0,0,1-10.42,6.72,270.08,270.08,0,0,0-28-2c-6-.12-12.27,0-17.78,2.48-11.28,5.05-15.75,17.58-17.85,30.3a9.76,9.76,0,0,1-9.4,8.25c-8.38.07-17,5.59-21.54,13-4.25,6.89-5.94,14.87-6.8,23a9.59,9.59,0,0,1-10.25,8.61c-18.52-1.43-37.89,10.78-44.14,28.32a9.61,9.61,0,0,1-9.26,6.37c-9.44-.19-18.91.2-27.82,3.17-11.3,3.77-21.68,12.64-23.74,24.38-.78,4.46-.77,9.87-4.6,12.28-2.26,1.43-5.13,1.23-7.8,1.48-15.73,1.48-24.48,18.81-28.26,34.15-2.56,10.35-4.17,21.51-.41,31.49s14.52,18,24.84,15.36c6.12-1.58,11.47-6.57,17.77-6s10.54,6.11,15.66,9.67c8.9,6.17,19.87,9.83,30.31,7C1843.68,7741.89,1852.48,7736.11,1858.17,7739.38Z" fill="#7a9a4b" stroke="#000" stroke-miterlimit="10" stroke-width="3"/><path d="M1844.94,7672.15c6.26-2.65,12.64-5.32,19.41-6s14.09,1.05,18.73,6c5.4-3.37,11.73-6.87,17.79-4.92,2.61.84,4.83,2.64,7.43,3.51,8.93,3,20-5.31,27.52.35" fill="none" stroke="#000" stroke-miterlimit="10" stroke-width="3"/><path d="M1970.05,7604.4c7.34-7.51,20.15-8.85,28.89-3,1.66,1.11,3.32,2.48,5.31,2.55,4.49.16,6.5-5.94,10.66-7.62,4.68-1.9,9.51,2.43,14.54,3,4.75.49,9.09-2.46,13.62-4s11-.54,12,4.12" fill="none" stroke="#000" stroke-miterlimit="10" stroke-width="3"/><path d="M1969.79,7370.06a33.93,33.93,0,0,1,30.3-2.32,17.52,17.52,0,0,0,5.15,1.7c2.27.2,4.46-.72,6.65-1.37a29.32,29.32,0,0,1,27.49,6.33" fill="none" stroke="#000" stroke-miterlimit="10" stroke-width="3"/><path d="M1782.51,4565.19h32.43a16.53,16.53,0,0,0,16.53-16.53v-26.89a48.87,48.87,0,0,1,14.3-34.53h0a12.1,12.1,0,0,1,17.1,0l1.22,1.22A48.84,48.84,0,0,1,1878.4,4523v43h0a40.8,40.8,0,0,1-40.81,40.8h-55.08Z" fill="#76a780" stroke="#000" stroke-miterlimit="10" stroke-width="3"/><path d="M1782.83,4586.83h49.59s21.55.95,22-15.85c.44-15.21,0-70.57,0-87.06" fill="none" stroke="#000" stroke-miterlimit="10" stroke-width="3"/><path d="M1765.09,4519.93h-32.44a16.53,16.53,0,0,1-16.53-16.54V4476.5a48.83,48.83,0,0,0-14.3-34.53h0a12.08,12.08,0,0,0-17.09,0l-1.23,1.22a48.83,48.83,0,0,0-14.3,34.54v43h0a40.81,40.81,0,0,0,40.8,40.81h55.09Z" fill="#76a780" stroke="#000" stroke-miterlimit="10" stroke-width="3"/><rect x="1742.97" y="4421.93" width="64.41" height="279.94" rx="28.23" fill="#76a780" stroke="#000" stroke-miterlimit="10" stroke-width="3"/><path d="M1773.08,4421.93s-10.83,15.66-10.83,28.49v246.37" fill="#76a780" stroke="#000" stroke-miterlimit="10" stroke-width="3"/><path d="M1776.83,4421.93s10.83,15.66,10.83,28.49v246.37" fill="#76a780" stroke="#000" stroke-miterlimit="10" stroke-width="3"/><path d="M1742,4538.37h-28s-21.55.95-22-15.85c-.44-15.21.73-64.25.73-80.74" fill="none" stroke="#000" stroke-miterlimit="10" stroke-width="3"/><path d="M1659.42,4743.1l25.52-90s18.81-12.09,41.65-9.4,67.17,9.4,79.26,8.06,40.3-6.72,40.3-6.72l25.53,55.08-4,37.62Z" fill="#f3df51"/><path d="M1693.93,4654.22s18.17-17.27,73.61-5.45,84.51,0,84.51,0" fill="none" stroke="#000" stroke-linecap="round" stroke-miterlimit="10" stroke-width="3"/><path d="M164.91,4422.47h21.63a11,11,0,0,0,11-11v-17.93a32.59,32.59,0,0,1,9.53-23h0a8.06,8.06,0,0,1,11.4,0l.82.82a32.54,32.54,0,0,1,9.54,23V4423h0a27.21,27.21,0,0,1-27.21,27.21H164.91Z" fill="#76a780" stroke="#000" stroke-miterlimit="10" stroke-width="3"/><path d="M165.13,4436.89H198.2s14.37.64,14.7-10.57c.29-10.14,0-47.06,0-58" fill="none" stroke="#000" stroke-miterlimit="10" stroke-width="3"/><path d="M153.3,4392.28H131.67a11,11,0,0,1-11-11v-17.94a32.56,32.56,0,0,0-9.54-23h0a8.08,8.08,0,0,0-11.4,0l-.82.82a32.59,32.59,0,0,0-9.53,23v28.68h0a27.2,27.2,0,0,0,27.2,27.21H153.3Z" fill="#76a780" stroke="#000" stroke-miterlimit="10" stroke-width="3"/><rect x="138.55" y="4326.93" width="42.95" height="186.67" rx="18.82" fill="#76a780" stroke="#000" stroke-miterlimit="10" stroke-width="3"/><path d="M158.63,4326.93s-7.23,10.44-7.23,19v164.29" fill="#76a780" stroke="#000" stroke-miterlimit="10" stroke-width="3"/><path d="M161.13,4326.93s7.22,10.44,7.22,19v164.29" fill="#76a780" stroke="#000" stroke-miterlimit="10" stroke-width="3"/><path d="M137.92,4404.58H119.28s-14.37.63-14.7-10.57c-.29-10.14.49-42.85.49-53.84" fill="none" stroke="#000" stroke-miterlimit="10" stroke-width="3"/><path d="M82.83,4541.1l17-60s12.54-8.06,27.77-6.27,44.79,6.27,52.85,5.37,26.88-4.48,26.88-4.48l17,36.73-2.69,25.09Z" fill="#f3df51"/><path d="M105.85,4481.83s12.12-11.51,49.08-3.63,56.36,0,56.36,0" fill="none" stroke="#000" stroke-linecap="round" stroke-miterlimit="10" stroke-width="3"/><path d="M1578,4057.68h18.49a9.43,9.43,0,0,0,9.42-9.43v-15.33a27.86,27.86,0,0,1,8.16-19.69h0a6.89,6.89,0,0,1,9.74,0l.7.7a27.84,27.84,0,0,1,8.15,19.69v24.52h0a23.26,23.26,0,0,1-23.26,23.26H1578Z" fill="#76a780" stroke="#000" stroke-miterlimit="10" stroke-width="3"/><path d="M1578.19,4070h28.27s12.29.54,12.57-9c.25-8.67,0-40.23,0-49.63" fill="none" stroke="#000" stroke-miterlimit="10" stroke-width="3"/><path d="M1568.08,4031.87h-18.49a9.43,9.43,0,0,1-9.43-9.43v-15.33a27.87,27.87,0,0,0-8.15-19.69h0a6.9,6.9,0,0,0-9.75,0l-.7.7a27.85,27.85,0,0,0-8.15,19.69v24.52h0a23.26,23.26,0,0,0,23.26,23.27h31.41Z" fill="#76a780" stroke="#000" stroke-miterlimit="10" stroke-width="3"/><rect x="1555.47" y="3976" width="36.72" height="159.59" rx="16.09" fill="#76a780" stroke="#000" stroke-miterlimit="10" stroke-width="3"/><path d="M1572.63,3976s-6.17,8.93-6.17,16.24V4132.7" fill="#76a780" stroke="#000" stroke-miterlimit="10" stroke-width="3"/><path d="M1574.77,3976s6.17,8.93,6.17,16.24V4132.7" fill="#76a780" stroke="#000" stroke-miterlimit="10" stroke-width="3"/><path d="M1554.93,4042.38H1539s-12.29.54-12.56-9c-.25-8.67.41-36.63.41-46" fill="none" stroke="#000" stroke-miterlimit="10" stroke-width="3"/><path d="M1507.83,4159.1l14.56-51.31s10.72-6.9,23.74-5.36,38.29,5.36,45.19,4.59,23-3.83,23-3.83l14.55,31.4-2.29,21.45Z" fill="#f3df51"/><path d="M1527.51,4108.43s10.36-9.84,42-3.11,48.18,0,48.18,0" fill="none" stroke="#000" stroke-linecap="round" stroke-miterlimit="10" stroke-width="3"/><rect x="1498.08" y="761.39" width="13.23" height="29.77" fill="#c8773f" stroke="#000" stroke-miterlimit="10" stroke-width="3"/><path d="M1528.77,729.41c-2.69-15.46,1.79-21.16-1-51.71-.8-8.53-3.07-16.92-3.71-25.46-.72-9.62.31-19.35-1.2-28.89-1.25-7.91-4.22-15.53-5.35-23.45-1-6.82-.55-13.75-1.38-20.59-.76-6.28-2.57-12.45-2.87-18.76-.24-5.17.38-10.84-.9-15.74-1.33-5.1-9.5-5.07-10.79,0l0,.1c-.8,3.3-.41,6.79-1.46,10-1,2.93-3,5.47-4,8.4a22,22,0,0,0-.75,7.71c.22,6.88,1,13.86-.61,20.58-1.42,6-4.65,11.5-6.29,17.43-4.36,15.76,2.87,32.49,0,48.52-1,5.44-3.11,10.67-4,16.12-.77,4.77-.57,9.61-.62,14.43-.15,14-2.45,27.93-4.75,41.79,0,0-2.2,41.77,22.88,41C1513.54,771.72,1535.13,766.05,1528.77,729.41Z" fill="#588068" stroke="#000" stroke-miterlimit="10" stroke-width="3"/><path d="M1499.71,703.35c.46,4.09.92,8.26.08,12.29-1.32,6.38-5.82,12.47-4.25,18.79.56,2.23,1.84,4.22,2.51,6.42,1.91,6.29-1.33,13.75,2.11,19.35" fill="none" stroke="#000" stroke-linecap="round" stroke-linejoin="round" stroke-width="3"/><path d="M1512.55,662.21a34.22,34.22,0,0,1,4.91,19.46c-.16,3.17-.77,6.31-.64,9.48.16,4.12,1.55,8.07,2.39,12.11a46.43,46.43,0,0,1-4.61,31.41" fill="none" stroke="#000" stroke-linecap="round" stroke-linejoin="round" stroke-width="3"/><path d="M1504.69,605a34.89,34.89,0,0,1-.66,9.34c-1.84,8.72-7.07,17.24-5.06,25.92.65,2.81,2,5.39,2.92,8.13,2.15,6.62,1.32,13.78.47,20.69" fill="none" stroke="#000" stroke-linecap="round" stroke-linejoin="round" stroke-width="3"/><path d="M1481.2,792.67a94.43,94.43,0,0,1,48.6,0" fill="#75a782" stroke="#000" stroke-linecap="round" stroke-linejoin="round" stroke-width="3"/><rect x="687.72" y="804.23" width="9.35" height="21.04" fill="#c8773f" stroke="#000" stroke-miterlimit="10" stroke-width="3"/><path d="M709.41,781.62c-1.9-10.93,1.27-15-.74-36.55-.56-6-2.17-12-2.62-18-.51-6.8.22-13.67-.85-20.42-.88-5.58-3-11-3.78-16.57-.69-4.82-.39-9.72-1-14.55-.54-4.44-1.82-8.8-2-13.26-.17-3.66.26-7.66-.64-11.13s-6.71-3.59-7.63,0l0,.07c-.56,2.33-.29,4.8-1,7.09-.67,2.07-2.13,3.87-2.82,5.94a15.62,15.62,0,0,0-.52,5.45c.15,4.86.7,9.79-.43,14.55-1,4.23-3.29,8.12-4.45,12.31-3.08,11.14,2,23,0,34.3-.69,3.85-2.19,7.54-2.82,11.39a68.19,68.19,0,0,0-.43,10.21c-.11,9.9-1.74,19.74-3.36,29.54,0,0-1.55,29.52,16.17,28.94C698.65,811.53,713.91,807.52,709.41,781.62Z" fill="#588068" stroke="#000" stroke-miterlimit="10" stroke-width="3"/><path d="M688.87,763.2a27.54,27.54,0,0,1,.06,8.69c-.93,4.51-4.11,8.81-3,13.28.39,1.58,1.3,3,1.77,4.54,1.35,4.44-.94,9.72,1.49,13.68" fill="none" stroke="#000" stroke-linecap="round" stroke-linejoin="round" stroke-width="3"/><path d="M698,734.12a24.27,24.27,0,0,1,3.47,13.76c-.12,2.24-.54,4.46-.46,6.7.12,2.91,1.1,5.7,1.7,8.56a32.86,32.86,0,0,1-3.26,22.2" fill="none" stroke="#000" stroke-linecap="round" stroke-linejoin="round" stroke-width="3"/><path d="M692.39,693.65a24.06,24.06,0,0,1-.47,6.61c-1.29,6.16-5,12.19-3.57,18.32.46,2,1.44,3.81,2.06,5.75,1.52,4.67.94,9.74.34,14.62" fill="none" stroke="#000" stroke-linecap="round" stroke-linejoin="round" stroke-width="3"/><path d="M678.21,826.83a56.56,56.56,0,0,1,29.11,0" fill="#75a782" stroke="#000" stroke-linecap="round" stroke-linejoin="round" stroke-width="3"/><line x1="1824.56" y1="88.14" x2="1824.56" y2="122.94" fill="#c8773f" stroke="#000" stroke-miterlimit="10" stroke-width="3"/><path d="M1808.24,80.07a39,39,0,0,1-2.88,9.3c-2.06,4.25-10,21.63,15.38,21.46s26.58-7.14,24.52-14.88-7.4-8.52-7-15.1,4.94-8.52,3.7-17.43a22.57,22.57,0,0,0-2.15-7.44c-1.77-3.44-3.07-4.66-4.84-7.27-5.31-7.83-2.16-11.93-6.38-14.91-3.94-2.79-10.95-2.22-14.15.94a5.77,5.77,0,0,0-1.69,2.74c-1.64,5,0,11.61-1.64,17s-6.58,5.43-6.58,11.62,2,8.13,2.88,10.07A11.14,11.14,0,0,1,1808.24,80.07Z" fill="#588068" stroke="#000" stroke-miterlimit="10" stroke-width="3"/><line x1="1872.77" y1="95.87" x2="1872.77" y2="122.94" fill="#c8773f" stroke="#000" stroke-miterlimit="10" stroke-width="3"/><path d="M1860.07,89.6a30.56,30.56,0,0,1-2.24,7.23c-1.6,3.31-7.75,16.82,12,16.69s20.67-5.55,19.07-11.57-5.76-6.63-5.44-11.75,3.84-6.63,2.88-13.55a17.79,17.79,0,0,0-1.67-5.79,43.37,43.37,0,0,0-3.77-5.66c-4.13-6.08-1.68-9.27-5-11.59-3.06-2.17-8.52-1.73-11,.73a4.4,4.4,0,0,0-1.32,2.13c-1.28,3.91,0,9-1.28,13.25s-5.12,4.22-5.12,9,1.6,6.32,2.24,7.83A8.6,8.6,0,0,1,1860.07,89.6Z" fill="#588068" stroke="#000" stroke-miterlimit="10" stroke-width="3"/><line x1="1708.14" y1="302.7" x2="1708.14" y2="339.1" fill="#c8773f" stroke="#000" stroke-miterlimit="10" stroke-width="3"/><path d="M1691.07,294.27a41,41,0,0,1-3,9.72c-2.15,4.45-10.42,22.62,16.08,22.45s27.8-7.47,25.65-15.57-7.74-8.91-7.31-15.79,5.16-8.91,3.87-18.22a23.62,23.62,0,0,0-2.25-7.79c-1.86-3.59-3.21-4.87-5.06-7.6-5.55-8.18-2.26-12.47-6.67-15.59-4.12-2.92-11.45-2.32-14.8,1a5.84,5.84,0,0,0-1.76,2.86c-1.73,5.26,0,12.14-1.73,17.81s-6.88,5.67-6.88,12.15,2.15,8.51,3,10.53A11.63,11.63,0,0,1,1691.07,294.27Z" fill="#588068" stroke="#000" stroke-miterlimit="10" stroke-width="3"/><line x1="1657.48" y1="310.38" x2="1657.48" y2="339.1" fill="#c8773f" stroke="#000" stroke-miterlimit="10" stroke-width="3"/><path d="M1644,303.73a32.35,32.35,0,0,1-2.38,7.67c-1.69,3.51-8.22,17.85,12.69,17.71s21.94-5.89,20.24-12.28-6.11-7-5.77-12.46,4.07-7,3.06-14.38a18.65,18.65,0,0,0-1.78-6.14,44.24,44.24,0,0,0-4-6c-4.37-6.46-1.78-9.84-5.26-12.31-3.25-2.3-9-1.83-11.67.78a4.79,4.79,0,0,0-1.4,2.26c-1.35,4.15,0,9.59-1.35,14.06s-5.43,4.47-5.43,9.58,1.69,6.71,2.37,8.31A9.17,9.17,0,0,1,1644,303.73Z" fill="#588068" stroke="#000" stroke-miterlimit="10" stroke-width="3"/><rect x="1041.21" y="1002.82" width="9.96" height="22.4" fill="#c8773f" stroke="#000" stroke-miterlimit="10" stroke-width="3"/><path d="M1064.3,978.75c-2-11.63,1.35-15.91-.79-38.9-.6-6.42-2.31-12.73-2.79-19.16-.54-7.24.24-14.55-.9-21.73-.94-6-3.18-11.68-4-17.64-.73-5.14-.41-10.35-1-15.5-.57-4.72-1.93-9.36-2.15-14.11-.18-3.89.28-8.16-.68-11.84-1-3.84-7.15-3.82-8.12,0l0,.07c-.6,2.48-.31,5.11-1.1,7.55-.71,2.2-2.27,4.12-3,6.32a16.64,16.64,0,0,0-.56,5.8c.17,5.18.75,10.43-.45,15.49-1.07,4.5-3.5,8.64-4.74,13.11-3.28,11.85,2.16,24.44,0,36.51-.73,4.09-2.33,8-3,12.12a74.3,74.3,0,0,0-.46,10.86c-.12,10.55-1.85,21-3.58,31.44,0,0-1.65,31.43,17.22,30.81C1052.85,1010.59,1069.09,1006.32,1064.3,978.75Z" fill="#588068" stroke="#000" stroke-miterlimit="10" stroke-width="3"/><path d="M1042.44,959.15a29.29,29.29,0,0,1,.06,9.25c-1,4.8-4.38,9.38-3.19,14.13.41,1.68,1.38,3.17,1.88,4.83,1.44,4.73-1,10.35,1.59,14.56" fill="none" stroke="#000" stroke-linecap="round" stroke-linejoin="round" stroke-width="3"/><path d="M1052.1,928.2a25.8,25.8,0,0,1,3.7,14.64c-.13,2.38-.58,4.75-.49,7.13.12,3.1,1.17,6.07,1.8,9.11a35,35,0,0,1-3.46,23.64" fill="none" stroke="#000" stroke-linecap="round" stroke-linejoin="round" stroke-width="3"/><path d="M1046.19,885.12a26.35,26.35,0,0,1-.5,7c-1.38,6.56-5.32,13-3.81,19.5.49,2.12,1.53,4.06,2.2,6.12,1.61,5,1,10.37.35,15.56" fill="none" stroke="#000" stroke-linecap="round" stroke-linejoin="round" stroke-width="3"/><path d="M1031.09,1026.88a60.26,60.26,0,0,1,31,0" fill="#75a782" stroke="#000" stroke-linecap="round" stroke-linejoin="round" stroke-width="3"/><rect x="605.52" y="1116.66" width="8.45" height="19.02" fill="#c8773f" stroke="#000" stroke-miterlimit="10" stroke-width="3"/><path d="M580.93,1066.5a70.57,70.57,0,0,1-5.18,16.73c-3.7,7.66-17.94,38.92,27.68,38.62s47.83-12.84,44.13-26.78-13.33-15.33-12.59-27.17,8.89-15.33,6.67-31.36a40.58,40.58,0,0,0-3.88-13.39c-3.19-6.19-5.52-8.38-8.71-13.09-9.55-14.08-3.88-21.46-11.47-26.83-7.1-5-19.71-4-25.47,1.7a10.29,10.29,0,0,0-3,4.92c-3,9.06,0,20.91-3,30.66s-11.85,9.76-11.85,20.91,3.7,14.63,5.18,18.11A20,20,0,0,1,580.93,1066.5Z" fill="#588068" stroke="#000" stroke-miterlimit="10" stroke-width="3"/><path d="M594.16,1036.88a9.45,9.45,0,0,1-.28-6.82c.72-2.08,2.16-3.85,2.81-6,1.44-4.58-1-9.92,1.1-14.23" fill="none" stroke="#000" stroke-linecap="round" stroke-linejoin="round" stroke-width="3"/><path d="M619.77,1044.19a11.53,11.53,0,0,1,4,8.38,28.75,28.75,0,0,1-1.35,9.41,12.93,12.93,0,0,0-.7,4.16,17.93,17.93,0,0,0,.7,3.28,20.61,20.61,0,0,1,.15,9.5" fill="none" stroke="#000" stroke-linecap="round" stroke-linejoin="round" stroke-width="3"/><path d="M598.9,1075.78c-1.93,2-4,4.11-4.32,6.84-.31,2.46.86,4.89.9,7.38s-1,4.8-1.58,7.2a18.23,18.23,0,0,0,.05,8.47c.29,1.19.86,2.5,2,2.87" fill="none" stroke="#000" stroke-linecap="round" stroke-linejoin="round" stroke-width="3"/><path d="M592.05,1137.4a69,69,0,0,1,35.4,0" fill="#75a782" stroke="#000" stroke-linecap="round" stroke-linejoin="round" stroke-width="3"/><rect x="495.05" y="2283.94" width="13" height="33.53" fill="#c8773f" stroke="#000" stroke-miterlimit="10" stroke-width="3"/><path d="M457.22,2195.52s-2.28,16-8,29.48-27.6,68.64,42.57,68.11,73.59-22.65,67.9-47.22-20.5-27-19.37-47.92,13.67-27,10.25-55.28c-1.3-10.8-3.44-18-6-23.62-4.91-10.9-8.49-14.77-13.4-23.07-14.69-24.82-6-37.83-17.65-47.3-10.91-8.85-30.32-7-39.17,3-.84,1-3,2.91-4.67,8.68-4.56,16,0,36.86-4.56,54.06S447,2131.63,447,2151.29s5.69,25.8,8,31.94A39.75,39.75,0,0,1,457.22,2195.52Z" fill="#588068" stroke="#000" stroke-miterlimit="10" stroke-width="3"/><path d="M477.56,2143.29a18.91,18.91,0,0,1-.42-12c1.11-3.66,3.31-6.79,4.32-10.48,2.22-8.09-1.6-17.5,1.69-25.09" fill="none" stroke="#000" stroke-linecap="round" stroke-linejoin="round" stroke-width="3"/><path d="M517,2156.17c3.86,3.46,5.81,9.17,6.13,14.78s-.78,11.18-2.08,16.6a26,26,0,0,0-1.07,7.32,35.46,35.46,0,0,0,1.08,5.78,41.68,41.68,0,0,1,.22,16.76" fill="none" stroke="#000" stroke-linecap="round" stroke-linejoin="round" stroke-width="3"/><path d="M484.86,2211.88c-3,3.43-6.12,7.24-6.65,12-.47,4.36,1.32,8.63,1.39,13s-1.57,8.47-2.43,12.71a36.76,36.76,0,0,0,.07,14.92c.45,2.1,1.32,4.42,3.13,5.06" fill="none" stroke="#000" stroke-linecap="round" stroke-linejoin="round" stroke-width="3"/><path d="M474.33,2320.52a92.87,92.87,0,0,1,54.45,0" fill="#75a782" stroke="#000" stroke-linecap="round" stroke-linejoin="round" stroke-width="3"/><rect x="879.68" y="2385.06" width="21.68" height="48.77" fill="#c8773f" stroke="#000" stroke-miterlimit="10" stroke-width="3"/><path d="M930,2332.66c-4.4-25.33,2.93-34.66-1.72-84.71-1.3-14-5-27.72-6.07-41.72-1.18-15.76.51-31.69-2-47.32-2.05-12.95-6.92-25.44-8.76-38.41-1.59-11.18-.91-22.54-2.27-33.74-1.25-10.28-4.21-20.39-4.69-30.72-.4-8.49.62-17.77-1.48-25.8-2.18-8.35-15.56-8.31-17.68,0l0,.16c-1.31,5.41-.68,11.12-2.39,16.43-1.56,4.8-4.94,9-6.54,13.76-1.35,4.07-1.35,8.39-1.21,12.64.36,11.27,1.62,22.7-1,33.72-2.33,9.8-7.62,18.82-10.31,28.54-7.14,25.82,4.7,53.23,0,79.5-1.6,8.91-5.09,17.47-6.53,26.4-1.26,7.81-.93,15.75-1,23.65-.25,23-4,45.76-7.78,68.46,0,0-3.59,68.42,37.48,67.09C905,2402,940.39,2392.68,930,2332.66Z" fill="#588068" stroke="#000" stroke-miterlimit="10" stroke-width="3"/><path d="M882.36,2290c.75,6.71,1.5,13.54.13,20.15-2.16,10.45-9.53,20.42-7,30.78.91,3.65,3,6.9,4.11,10.51,3.12,10.3-2.18,22.53,3.46,31.7" fill="none" stroke="#000" stroke-linecap="round" stroke-linejoin="round" stroke-width="3"/><path d="M903.39,2222.57a56.1,56.1,0,0,1,8.05,31.88c-.27,5.19-1.26,10.34-1.06,15.53.27,6.74,2.55,13.23,3.93,19.84a76.14,76.14,0,0,1-7.55,51.46" fill="none" stroke="#000" stroke-linecap="round" stroke-linejoin="round" stroke-width="3"/><path d="M890.52,2128.78a56.94,56.94,0,0,1-1.09,15.3c-3,14.29-11.58,28.25-8.28,42.47,1.06,4.6,3.33,8.83,4.78,13.32,3.51,10.84,2.16,22.58.77,33.89" fill="none" stroke="#000" stroke-linecap="round" stroke-linejoin="round" stroke-width="3"/><path d="M857.64,2437.45a131,131,0,0,1,67.47,0" fill="#75a782" stroke="#000" stroke-linecap="round" stroke-linejoin="round" stroke-width="3"/><rect x="952.68" y="1567.96" width="14.17" height="31.87" fill="#c8773f" stroke="#000" stroke-miterlimit="10" stroke-width="3"/><path d="M985.54,1533.71c-2.88-16.55,1.92-22.65-1.12-55.35-.85-9.14-3.29-18.12-4-27.27-.77-10.3.33-20.71-1.29-30.93-1.33-8.46-4.52-16.62-5.72-25.1-1-7.3-.6-14.72-1.49-22-.81-6.73-2.75-13.33-3.06-20.08-.26-5.55.4-11.61-1-16.86-1.42-5.46-10.17-5.43-11.55,0l0,.11c-.85,3.53-.44,7.26-1.56,10.73-1,3.14-3.23,5.87-4.27,9a23.47,23.47,0,0,0-.8,8.26c.24,7.37,1.06,14.84-.65,22-1.52,6.4-5,12.3-6.74,18.66-4.66,16.87,3.07,34.78,0,51.95-1,5.82-3.33,11.42-4.27,17.25-.82,5.11-.61,10.3-.66,15.46-.17,15-2.63,29.9-5.09,44.74,0,0-2.35,44.71,24.5,43.84C969.24,1579,992.36,1572.94,985.54,1533.71Z" fill="#588068" stroke="#000" stroke-miterlimit="10" stroke-width="3"/><path d="M954.43,1505.81c.49,4.38,1,8.85.09,13.17-1.41,6.82-6.23,13.35-4.55,20.11.6,2.39,2,4.51,2.69,6.87,2,6.73-1.43,14.73,2.26,20.72" fill="none" stroke="#000" stroke-linecap="round" stroke-linejoin="round" stroke-width="3"/><path d="M968.18,1461.77a36.68,36.68,0,0,1,5.26,20.84c-.18,3.38-.83,6.75-.69,10.14.17,4.41,1.66,8.65,2.56,13a49.78,49.78,0,0,1-4.93,33.63" fill="none" stroke="#000" stroke-linecap="round" stroke-linejoin="round" stroke-width="3"/><path d="M959.76,1400.47a36.88,36.88,0,0,1-.71,10c-2,9.34-7.56,18.47-5.41,27.76.7,3,2.18,5.77,3.13,8.7,2.29,7.09,1.41,14.76.5,22.15" fill="none" stroke="#000" stroke-linecap="round" stroke-linejoin="round" stroke-width="3"/><path d="M938.28,1602.2a85.6,85.6,0,0,1,44.09,0" fill="#75a782" stroke="#000" stroke-linecap="round" stroke-linejoin="round" stroke-width="3"/><rect x="852.51" y="1489.79" width="10.79" height="24.28" fill="#c8773f" stroke="#000" stroke-miterlimit="10" stroke-width="3"/><path d="M877.53,1463.7c-2.19-12.6,1.46-17.25-.85-42.16-.65-7-2.5-13.8-3-20.76-.58-7.85.26-15.78-1-23.56-1-6.44-3.45-12.66-4.37-19.12-.79-5.56-.45-11.21-1.13-16.79-.62-5.12-2.09-10.15-2.33-15.29-.2-4.22.31-8.84-.74-12.84-1.08-4.16-7.74-4.14-8.8,0l0,.08c-.65,2.69-.33,5.54-1.19,8.18-.77,2.39-2.46,4.47-3.25,6.85a18.24,18.24,0,0,0-.61,6.29c.19,5.61.81,11.3-.49,16.79-1.16,4.87-3.79,9.37-5.13,14.2-3.56,12.85,2.34,26.5,0,39.57-.8,4.43-2.54,8.7-3.25,13.14a78.37,78.37,0,0,0-.51,11.77c-.12,11.43-2,22.78-3.87,34.08,0,0-1.79,34,18.65,33.39C865.12,1498.2,882.72,1493.58,877.53,1463.7Z" fill="#588068" stroke="#000" stroke-miterlimit="10" stroke-width="3"/><path d="M853.84,1442.45c.37,3.34.75,6.74.07,10-1.08,5.2-4.75,10.17-3.47,15.32.46,1.82,1.5,3.44,2,5.23,1.55,5.13-1.09,11.22,1.72,15.78" fill="none" stroke="#000" stroke-linecap="round" stroke-linejoin="round" stroke-width="3"/><path d="M864.31,1408.91a27.92,27.92,0,0,1,4,15.87c-.13,2.58-.62,5.14-.52,7.73.13,3.35,1.27,6.58,2,9.87A37.87,37.87,0,0,1,866,1468" fill="none" stroke="#000" stroke-linecap="round" stroke-linejoin="round" stroke-width="3"/><path d="M857.9,1362.23a28.2,28.2,0,0,1-.54,7.61c-1.5,7.11-5.76,14.06-4.12,21.14.53,2.29,1.65,4.39,2.38,6.63,1.75,5.39,1.07,11.24.38,16.87" fill="none" stroke="#000" stroke-linecap="round" stroke-linejoin="round" stroke-width="3"/><path d="M841.54,1515.86a65.24,65.24,0,0,1,33.58,0" fill="#75a782" stroke="#000" stroke-linecap="round" stroke-linejoin="round" stroke-width="3"/><path d="M189.15,6732.7c-1.42,4.12-5,7.07-8.39,9.79l-23.8,19c-5.44,4.34-11.08,8.79-17.8,10.56-8.37,2.21-17.36-.05-25-4a37.15,37.15,0,0,1-38.26,9.4c-3.69-1.28-7.33-3.18-11.23-3-3.18.13-6.12,1.63-9.05,2.87a62.12,62.12,0,0,1-53.19-2.66A34,34,0,0,1-8.1,6777.7V6625.2c3.69-7.19,7-13.9,4.88-22.06,17.62-11.76,43.95-7.73,57.24,8.77,1.49,1.85,3,3.94,5.26,4.61,1.78.52,3.67.06,5.49-.29,24-4.67,50.08,12.93,54.75,36.93,11-4.61,24.53-.24,32.6,8.62s11.27,21.32,11,33.29c12.94-.41,24.94,11.49,24.63,24.43C192,6722.28,190.8,6727.89,189.15,6732.7Z" fill="#7a9a4b" stroke="#000" stroke-miterlimit="10" stroke-width="3"/><path d="M440.86,6997a37.81,37.81,0,0,1,21.34,34.32,2.33,2.33,0,0,0,1.62,2.27c16.86,5.33,29.55,22.06,30,39.75a2.25,2.25,0,0,1-.66,1.68c-8.47,8.37-23.47,3.1-35.46.84-3.16-.6-6.51-1-9.51.16-2.68,1-4.76,3.13-7.05,4.85-11.23,8.43-24.68,13.85-38.19,10s-27.18-10-41-7.58c-10.46,1.82-19.44,8.36-29.42,12a55.46,55.46,0,0,1-30.62,2.07c-17.29-3.78-34.07-15.88-51.07-11-8.91,2.57-15.82,9.42-23.57,14.51a66.58,66.58,0,0,1-55.7,7.73c-12.69-4-24.52-11.92-37.83-11.94-12.77,0-24.23,7.24-36.08,12-20.57,8.32-39.83-2.09-61.77-5.38-3.6-.54-7.18-1.34-10.82-1.24a59.8,59.8,0,0,0-9.65,1.52,79.39,79.39,0,0,1-16.21,1.4,2.35,2.35,0,0,1-2.29-2.36v-377a2.37,2.37,0,0,1,3.94-1.77h0a2.41,2.41,0,0,0,2.69.37,42.79,42.79,0,0,1,39.75.87,2.4,2.4,0,0,0,2.28,0c15.28-7.58,36-1.12,44.65,13.42a2.32,2.32,0,0,0,3.64.43,10.25,10.25,0,0,1,10.66-1.78c4.68,2,7.68,6.56,9.79,11.18a59,59,0,0,1,4.87,31.08,2.36,2.36,0,0,0,2.27,2.62c7.37.28,14.14,5.78,17.64,12.46s4.39,14.11,5,21.57a2.35,2.35,0,0,0,2.94,2.1,31.31,31.31,0,0,1,39.83,31.82,2.35,2.35,0,0,0,3.08,2.37c17.7-5.72,39.27,2.86,47.63,19.64,1,2,1.9,4.18,3.74,5.45,2.61,1.81,6.11,1.14,9.28.94,11.5-.71,23,6.64,27.39,17.24a2.35,2.35,0,0,0,2.84,1.39c8.91-2.63,18.78-4.63,26.54.2,5,3.09,8,8.46,12.28,12.5,6.79,6.46,16.36,6.9,25.62,5.48s19.7-3.08,27.18,2.55c10.53,7.92,9.51,26.24,21.07,32.55,6.82,3.73,15.35,1.59,22.88,3.51,8.38,2.13,14.79,9.22,18.29,17.13,3.31,7.49,3.9,15.86,4.79,24A2.42,2.42,0,0,0,440.86,6997Z" fill="#7a9a4b" stroke="#000" stroke-miterlimit="10" stroke-width="3"/><path d="M33.65,7055.82c8.15-6.57,17.51-13.51,27.91-12.37,6.65.74,12.44,4.71,17.91,8.56,3.79-6.17,12.78-8.43,19-4.79,2.08,1.21,3.86,2.95,6.1,3.8,3.6,1.36,7.59.16,11.33-.73a67.48,67.48,0,0,1,35.66,1.34" fill="none" stroke="#000" stroke-miterlimit="10" stroke-width="3"/><path d="M182,7000.79c1.74-5.57,7.32-9.27,13.06-10.29s11.64.18,17.26,1.71a17.28,17.28,0,0,0,5.76.92,17.82,17.82,0,0,0,6.2-2.18c6.66-3.22,15-5.53,21.11-1.4,1.63,1.09,3.12,2.64,5.08,2.83,2.11.21,4-1.25,5.72-2.43,11.23-7.58,27.89-5.6,37,4.41" fill="none" stroke="#000" stroke-miterlimit="10" stroke-width="3"/><path d="M147.09,6915.79c-7.67-7.43-20.68-8.51-29.47-2.44a11,11,0,0,1-4,2.18,9.55,9.55,0,0,1-4-.42,94.34,94.34,0,0,0-21.49-2.72c-2.31,0-4.83.12-6.55,1.66-.86.77-1.48,1.86-2.54,2.31-1.25.54-2.68,0-4-.43-9.95-3.39-22.55-.65-27.9,8.4" fill="none" stroke="#000" stroke-miterlimit="10" stroke-width="3"/><path d="M14.43,6833.35c4.14-1.79,8.35-3.59,12.83-4.2s9.32.12,12.83,3c1.34,1.08,2.64,2.52,4.36,2.55a6.57,6.57,0,0,0,3.07-1.06c7.85-4.14,19.17-4.26,24,3.16" fill="none" stroke="#000" stroke-miterlimit="10" stroke-width="3"/><path d="M77.33,6728.48c7.37-9.69,23.29-11.23,32.37-3.12a30.28,30.28,0,0,1,25.8-4.1" fill="none" stroke="#000" stroke-miterlimit="10" stroke-width="3"/><path d="M45.68,6682.76c4.09-1.73,8.28-3.49,12.71-3.74s9.22,1.29,11.71,5a3.94,3.94,0,0,0,1.44,1.58c.91.41,1.95-.07,2.87-.46a17,17,0,0,1,18.07,3.43" fill="none" stroke="#000" stroke-miterlimit="10" stroke-width="3"/><path d="M2065.9,7864.36v493.73a40.17,40.17,0,0,0-8.94,2.81,51.69,51.69,0,0,1-44.41-1.72,38.36,38.36,0,0,0-34-.94c-20.73,9.55-46.67,8.32-65.48-4.89-3.19-2.24-6.39-4.86-10.26-5.35-6-.77-11.23,3.76-16.1,7.37-19.74,14.65-47.49,16.4-69.79,6.5a40,40,0,0,0-40.54,5,43,43,0,0,1-18.33,8.59c-30,5.49-60.28-28.68-87.87-15.58-5.91,2.81-10.7,7.53-16.35,10.82-17.18,10-37.37,5.19-56.1-3.78a39.78,39.78,0,0,0-36,1.19,54.17,54.17,0,0,1-26.14,6c-15.7-.29-30.73-6-45.39-11.59a102.43,102.43,0,0,1-16-7.28,39.25,39.25,0,0,0-27.64-4.73c-12.38,2.37-26.09.38-38.79-1.81-13.54-2.34-27.63-4.91-38.62-13.15a35.48,35.48,0,0,1-12.51-17.84,40.74,40.74,0,0,0-17-22.34c-10.4-6.8-17.33-20.35-15.72-33.1,1.57-12.45,9-23.13,19-31a39.3,39.3,0,0,0,15-31.37c-.39-29.45,16.62-59.29,43.48-72a22.74,22.74,0,0,1,3.59-1.32c11.06-3.06,20-11.14,25-21.47a86.2,86.2,0,0,1,44.45-41.58c17.29-7.05,36.43-8.46,54.88-5.26,16.62,2.88,33.52-4.49,41.81-19.17a62.17,62.17,0,0,1,18.81-20.69,62.84,62.84,0,0,1,34.22-10.76,39.85,39.85,0,0,0,32.14-16.79c10.09-14.54,26.82-25,44.24-29.69,16.23-4.36,33.08-4.67,49.94-3.55,12.9.85,25.66-4.15,33.88-14.12,10.4-12.61,30.38-18.88,47.86-19.69,7.33-.34,14.92-.27,21.63-3.24,6.32-2.79,11.2-8,16.44-12.49,23.77-20.5,58.25-27.81,88.3-18.72,4.65,1.4,9.56,3.19,14.23,1.85,5.55-1.59,8.92-7,12.62-11.42,13.95-16.68,39.74-22.08,59.21-12.4,4.51,2.24,9.44,5.27,14.2,3.63C2061.92,7870,2064,7867.14,2065.9,7864.36Z" fill="#7a9a4b" stroke="#000" stroke-miterlimit="10" stroke-width="3"/><path d="M1465.2,8167.17c11.81-5.93,27-11.57,37.23-3.18,2.69,2.21,5,5.41,8.53,5.72,1.92.18,3.79-.6,5.61-1.25a43.23,43.23,0,0,1,34.27,2.53,28.4,28.4,0,0,1,31.25-3.39" fill="none" stroke="#000" stroke-miterlimit="10" stroke-width="3"/><path d="M1827,8282.21c14.18-15.91,39.46-20.63,58.43-10.89,2.72,1.39,5.47,3.09,8.53,3.08,3.73,0,6.89-2.54,10.1-4.43a33.82,33.82,0,0,1,28.33-2.64c3.31,1.21,6.5,3,10,3.35,5,.57,9.85-1.68,14.75-2.87a36,36,0,0,1,30.06,6.49" fill="none" stroke="#000" stroke-miterlimit="10" stroke-width="3"/><path d="M1673.56,8216.85c11.88-14.52,36.2-16.45,50.23-4,11.07-11.77,30.8-14.14,44.34-5.31" fill="none" stroke="#000" stroke-miterlimit="10" stroke-width="3"/><path d="M1763.12,8096.39c.05-2.33,2.52-3.75,4.68-4.61a92,92,0,0,1,78.77,5.8,42.35,42.35,0,0,1,41.49-10.24c2.9.9,5.78,2.12,8.82,2.11,4.29,0,8.13-2.52,12.28-3.63a19.86,19.86,0,0,1,18.62,4.8" fill="none" stroke="#000" stroke-miterlimit="10" stroke-width="3"/><path d="M1954.26,7960.67c-2.1-5.54,2.53-11.77,8.14-13.65s11.74-.65,17.54.51,12,2.23,17.5.07c5.1-2,8.8-6.43,13.4-9.4a26.76,26.76,0,0,1,29.3.67" fill="none" stroke="#000" stroke-miterlimit="10" stroke-width="3"/><path d="M1465.12,8285.9c3.31-8.69,13.94-12.24,23.23-11.84s18.3,3.61,27.6,3.65c14.67.08,28.64-7.7,43.3-7,15,.69,29.52,10.2,44.16,6.77" fill="none" stroke="#000" stroke-miterlimit="10" stroke-width="3"/><path d="M1554.43,8847.18a38.3,38.3,0,0,1-11.67-16.64,71.91,71.91,0,0,1,17.72,5.55l11-13.41a41,41,0,0,1,12.06,12.12,86.5,86.5,0,0,0,16.71-9,44.28,44.28,0,0,1-2.34,20.82" fill="none" stroke="#000" stroke-linecap="round" stroke-linejoin="round" stroke-width="3"/><path d="M1030.3,7267.08a38.24,38.24,0,0,1-11.68-16.64,72,72,0,0,1,17.73,5.55l11-13.41a41,41,0,0,1,12.06,12.12,86.71,86.71,0,0,0,16.7-9.05,44.28,44.28,0,0,1-2.34,20.82" fill="none" stroke="#000" stroke-linecap="round" stroke-linejoin="round" stroke-width="3"/><path d="M1598.38,6867.9a38.38,38.38,0,0,1-11.68-16.64,71.85,71.85,0,0,1,17.73,5.55l11-13.41a40.92,40.92,0,0,1,12.06,12.12,87.35,87.35,0,0,0,16.71-9.05,44.41,44.41,0,0,1-2.34,20.82" fill="none" stroke="#000" stroke-linecap="round" stroke-linejoin="round" stroke-width="3"/><path d="M1490.5,106.82a51.51,51.51,0,0,1,19.8-4.93c6-.25,12,.55,18,.86a110.21,110.21,0,0,0,35.72-4" fill="none" stroke="#000" stroke-linecap="round" stroke-linejoin="round" stroke-width="3"/><path d="M1582.92,99.42a68.45,68.45,0,0,1,19-1.4" fill="none" stroke="#000" stroke-linecap="round" stroke-linejoin="round" stroke-width="3"/><path d="M506.47,3802.66h15.19a7.73,7.73,0,0,0,7.74-7.74v-12.6a22.87,22.87,0,0,1,6.7-16.17h0a5.67,5.67,0,0,1,8,0l.57.57a22.88,22.88,0,0,1,6.7,16.18V3803h0a19.12,19.12,0,0,1-19.11,19.12h-25.8Z" fill="#76a780" stroke="#000" stroke-miterlimit="10" stroke-width="3"/><path d="M506.62,3812.8h23.23s10.09.44,10.32-7.43c.21-7.12,0-33,0-40.77" fill="none" stroke="#000" stroke-miterlimit="10" stroke-width="3"/><path d="M498.31,3781.46H483.12a7.74,7.74,0,0,1-7.74-7.74v-12.6a22.86,22.86,0,0,0-6.7-16.17h0a5.67,5.67,0,0,0-8,0l-.57.57a22.87,22.87,0,0,0-6.7,16.17v20.15h0A19.1,19.1,0,0,0,472.51,3801h25.8Z" fill="#76a780" stroke="#000" stroke-miterlimit="10" stroke-width="3"/><rect x="487.95" y="3735.56" width="30.17" height="131.11" rx="13.22" fill="#76a780" stroke="#000" stroke-miterlimit="10" stroke-width="3"/><path d="M502.05,3735.56s-5.07,7.33-5.07,13.35V3864.3" fill="#76a780" stroke="#000" stroke-miterlimit="10" stroke-width="3"/><path d="M503.81,3735.56s5.07,7.33,5.07,13.35V3864.3" fill="#76a780" stroke="#000" stroke-miterlimit="10" stroke-width="3"/><path d="M487.51,3790.1H474.42s-10.1.44-10.33-7.43c-.2-7.12.34-30.09.34-37.81" fill="none" stroke="#000" stroke-miterlimit="10" stroke-width="3"/><path d="M448.82,3886l11.95-42.16s8.81-5.66,19.51-4.4,31.46,4.4,37.12,3.77,18.88-3.15,18.88-3.15l12,25.8-1.88,17.62Z" fill="#f3df51"/><path d="M465,3844.36s8.51-8.09,34.48-2.56,39.58,0,39.58,0" fill="none" stroke="#000" stroke-linecap="round" stroke-miterlimit="10" stroke-width="3"/><line x1="451.58" y1="182.37" x2="451.58" y2="217.18" fill="#c8773f" stroke="#000" stroke-miterlimit="10" stroke-width="3"/><path d="M435.26,174.31a39,39,0,0,1-2.88,9.29c-2.06,4.26-10,21.63,15.38,21.46s26.58-7.13,24.53-14.88-7.41-8.52-7-15.1,4.94-8.52,3.7-17.43a22.57,22.57,0,0,0-2.15-7.44c-1.77-3.44-3.07-4.66-4.84-7.27-5.31-7.82-2.16-11.93-6.38-14.91-3.94-2.79-10.95-2.22-14.15.94a5.76,5.76,0,0,0-1.68,2.74c-1.65,5,0,11.62-1.65,17s-6.58,5.42-6.58,11.61,2.05,8.14,2.88,10.07A11.17,11.17,0,0,1,435.26,174.31Z" fill="#588068" stroke="#000" stroke-miterlimit="10" stroke-width="3"/><line x1="499.79" y1="168.11" x2="499.79" y2="195.18" fill="#c8773f" stroke="#000" stroke-miterlimit="10" stroke-width="3"/><path d="M487.1,161.83a30.42,30.42,0,0,1-2.24,7.23c-1.6,3.31-7.76,16.83,12,16.7s20.67-5.56,19.07-11.58-5.76-6.63-5.44-11.75,3.84-6.62,2.88-13.55a17.38,17.38,0,0,0-1.67-5.79,43.21,43.21,0,0,0-3.77-5.65c-4.12-6.09-1.68-9.28-4.95-11.6-3.07-2.17-8.52-1.73-11,.73a4.45,4.45,0,0,0-1.31,2.13c-1.28,3.92,0,9-1.28,13.25s-5.12,4.22-5.12,9,1.6,6.32,2.24,7.83A8.64,8.64,0,0,1,487.1,161.83Z" fill="#588068" stroke="#000" stroke-miterlimit="10" stroke-width="3"/></svg>