<?xml version="1.0" encoding="UTF-8"?>
<svg xmlns="http://www.w3.org/2000/svg" id="Layer_1" data-name="Layer 1" viewBox="0 0 1080 1080">
  <defs>
    <style>
      .cls-1 {
        fill: #231f20;
      }

      .cls-2 {
        fill: #709d7a;
      }

      .cls-3 {
        fill: #e1d355;
      }
    </style>
  </defs>
  <g>
    <ellipse class="cls-3" cx="540" cy="540" rx="524.88" ry="524.83"></ellipse>
    <g>
      <g>
        <path class="cls-2" d="M455.86,745.19c26.88-63.33,81.49-110.91,139.84-147.38,58.35-36.47,121.91-64.09,179.76-101.35,40.03,62.7,43,144.92,16.91,214.59-17.87,47.71-48.33,89.9-85.12,124.85-19.84,18.85-39.01,32.67-62.91,46.02-25.56,14.27-51.31,28.18-77.3,41.65-9.41,4.88-114.77,54.1-117.37,46.18-23.09-70.22-23.39-154.85,6.19-224.55Z"></path>
        <path class="cls-1" d="M460.11,976.92c-5.98,1.44-10.49,1.88-12.82.93-2.19-.9-4.53-3.34-5.27-5.58-24.95-75.87-22.55-161.94,6.4-230.23h.02c23.98-56.51,70.75-105.93,142.98-151.06,28.15-17.6,57.86-33.34,86.6-48.56,31.06-16.46,63.19-33.48,93.07-52.73,1.79-1.16,4-1.54,6.09-1.1,2.08.46,3.91,1.74,5.07,3.54,39.14,61.31,45.92,146.28,17.67,221.74-17.4,46.45-46.71,89.46-87.13,127.87-19.97,18.99-39.26,33.1-64.52,47.2-26.23,14.65-52.32,28.71-77.52,41.78-.88.46-77.81,38.3-110.65,46.21ZM457.33,967.23l.16-.04-.16.04ZM463.28,748.33c-26.83,63.23-29.6,142.68-7.64,213.63,20.01-4.82,92.46-37.66,107.69-45.55,25.05-13,50.98-26.97,77.08-41.54,24-13.4,42.33-26.82,61.26-44.83,38.09-36.19,66.84-78.31,83.14-121.83,25.46-68.02,20.75-144.03-11.99-200.55-28.41,17.81-58.3,33.64-87.27,48.99-28.49,15.1-57.93,30.71-85.59,47.99-69.34,43.33-114.04,90.33-136.71,143.69h.02Z"></path>
      </g>
      <path class="cls-1" d="M457.6,970.7c-2.42.58-5.09.03-7.13-1.72-3.38-2.89-3.77-7.98-.86-11.36,22.67-26.42,39.91-55.18,56.58-82.97,17.02-28.37,34.61-57.73,58.18-85.19,15.65-18.25,31.93-36.26,48.25-54.34,64.08-70.96,130.33-144.33,159.35-234.38,1.4-4.24,5.93-6.52,10.15-5.21,4.24,1.38,6.57,5.91,5.21,10.15-30.09,93.36-97.52,168.02-162.73,240.24-16.23,17.96-32.42,35.88-47.99,54.03-22.68,26.44-39.92,55.18-56.58,82.99-17.02,28.37-34.61,57.71-58.19,85.18-1.14,1.33-2.63,2.21-4.23,2.59Z"></path>
    </g>
  </g>
  <g>
    <ellipse class="cls-3" cx="540" cy="540" rx="524.96" ry="524.91"></ellipse>
    <g>
      <g>
        <path class="cls-2" d="M455.84,745.22c26.88-63.34,81.5-110.93,139.86-147.4,58.35-36.47,121.93-64.1,179.78-101.36,40.03,62.71,43.01,144.94,16.92,214.62-17.87,47.71-48.34,89.91-85.13,124.87-19.84,18.85-39.01,32.67-62.92,46.02-25.56,14.27-51.32,28.18-77.31,41.66-9.41,4.88-114.78,54.11-117.39,46.19-23.09-70.23-23.4-154.87,6.19-224.59Z"></path>
        <path class="cls-1" d="M460.09,976.98c-5.98,1.44-10.49,1.88-12.82.93-2.19-.9-4.53-3.35-5.27-5.58-24.95-75.88-22.55-161.96,6.4-230.26h.02c23.98-56.52,70.76-105.94,143-151.08,28.15-17.6,57.87-33.34,86.61-48.57,31.06-16.46,63.19-33.48,93.08-52.74,1.79-1.16,4-1.54,6.09-1.1,2.08.46,3.91,1.74,5.07,3.55,39.14,61.31,45.93,146.3,17.67,221.77-17.4,46.46-46.72,89.48-87.14,127.89-19.97,18.99-39.27,33.1-64.52,47.21-26.23,14.66-52.33,28.71-77.53,41.78-.88.46-77.82,38.31-110.66,46.21ZM457.31,967.29l.16-.04-.16.04ZM463.27,748.36c-26.83,63.24-29.6,142.7-7.64,213.66,20.01-4.82,92.48-37.67,107.71-45.55,25.06-13,50.99-26.97,77.09-41.54,24-13.41,42.34-26.82,61.27-44.84,38.09-36.2,66.85-78.32,83.15-121.85,25.47-68.03,20.75-144.05-11.99-200.58-28.42,17.81-58.31,33.65-87.28,48.99-28.49,15.1-57.94,30.71-85.6,47.99-69.35,43.34-114.06,90.34-136.73,143.71h.02Z"></path>
      </g>
      <path class="cls-1" d="M457.59,970.77c-2.42.58-5.09.03-7.14-1.73-3.38-2.89-3.77-7.98-.86-11.36,22.67-26.43,39.91-55.19,56.59-82.98,17.02-28.38,34.61-57.73,58.19-85.2,15.65-18.25,31.94-36.27,48.26-54.35,64.09-70.97,130.35-144.35,159.37-234.41,1.4-4.24,5.93-6.52,10.15-5.21,4.24,1.38,6.57,5.92,5.21,10.15-30.09,93.37-97.54,168.04-162.76,240.27-16.23,17.96-32.42,35.89-48,54.04-22.68,26.44-39.93,55.19-56.59,83-17.02,28.38-34.62,57.72-58.2,85.19-1.14,1.33-2.63,2.21-4.23,2.59Z"></path>
    </g>
    <g>
      <path class="cls-1" d="M149.43,410.37l-.17-.7c-1.18-4.9,8.12-10.85,6.09-19.25l-16.81-69.64c-2.7-11.2-14.32-4.88-15.89-11.35l-.21-.88c-.59-2.45.78-4.45,3.9-6.87l24.77-18.57c8.04-5.83,14.61-3.15,15.75,1.57,1.39,5.77-2.33,7.23.08,17.2l19.55,81.01c2.03,8.4,13.54,9.32,14.73,14.22l.17.7c.51,2.1-.95,3.75-3.4,4.34l-43.57,10.51c-2.62.63-4.49-.21-5-2.31Z"></path>
      <path class="cls-1" d="M196.26,337.41c-9.38-38.84,6.33-69.67,40.8-77.99,31.67-7.64,62.94,12.21,72.27,50.88,9.46,39.19-11,69.5-41.27,76.8-30.97,7.47-62.38-10.68-71.8-49.7ZM278.33,332.97c-7.26-30.09-25.89-64.3-42.68-60.25-10.85,2.62-14.51,17.39-7.92,44.68,7.47,30.97,25.44,60.89,42.23,56.84,10.32-2.49,14.49-15.9,8.37-41.27Z"></path>
      <path class="cls-1" d="M320.32,307.46c-9.38-38.84,6.33-69.67,40.8-77.99,31.67-7.64,62.94,12.21,72.27,50.88,9.46,39.19-11,69.5-41.27,76.8-30.97,7.47-62.38-10.68-71.8-49.7ZM402.39,303.03c-7.26-30.09-25.89-64.3-42.68-60.24-10.85,2.62-14.5,17.39-7.92,44.68,7.47,30.97,25.44,60.89,42.23,56.84,10.32-2.49,14.49-15.9,8.37-41.27Z"></path>
      <path class="cls-1" d="M444.38,277.52c-9.38-38.84,6.33-69.67,40.8-77.99,31.67-7.64,62.94,12.21,72.27,50.88,9.46,39.19-11,69.5-41.27,76.8-30.97,7.47-62.38-10.68-71.8-49.7ZM526.45,273.08c-7.26-30.09-25.89-64.3-42.68-60.24-10.85,2.62-14.51,17.39-7.92,44.68,7.47,30.97,25.43,60.89,42.23,56.84,10.32-2.49,14.49-15.9,8.37-41.27Z"></path>
      <path class="cls-1" d="M735.65,268.33l.17.7c.51,2.1-.95,3.75-3.4,4.34l-34.99,8.45c-2.45.59-4.5-.21-5-2.31l-.17-.7c-1.18-4.9,5.09-8.82,2.62-16.74l-9.22-30.55c-5.14-17.46-10.38-23.05-17.9-21.23-7.17,1.73-9.16,9.62-6.84,19.24.94,2.37,1.67,4.6,2.3,7.22l7.52,31.14c1.94,8.05,8.79,8.8,9.97,13.7l.17.7c.51,2.1-.95,3.75-3.4,4.34l-34.82,8.4c-2.62.63-4.5-.21-5-2.31l-.17-.7c-1.18-4.9,4.39-8.65,2.45-16.7l-8.02-33.24c-3.59-14.87-9.83-20.77-17.18-19-8.05,1.94-9.99,10-7.71,19.45l9.29,38.49c1.94,8.05,10.19,8.46,11.37,13.36l.17.7c.51,2.1-.77,3.7-3.4,4.34l-37.79,9.12c-2.62.63-4.5-.21-5-2.31l-.17-.7c-1.18-4.9,5.97-9.03,4.03-17.08l-8.32-34.47c-1.99-8.22-11.55-7.21-12.78-12.28l-.13-.52c-.51-2.1.99-3.57,3.14-5.39l23.33-18.41c3.87-3.16,6.82-.9,7.66,2.6l1.52,6.3c3.38-8.22,10.59-14.41,20.57-16.81,12.07-2.91,23.75-.55,32.16,7.42,2.53-10.24,10.88-17.81,22.43-20.6,15.05-3.63,32.12,1.14,41.06,28.97l9.5,29.37c2.47,7.92,8.79,8.8,9.97,13.7Z"></path>
      <path class="cls-1" d="M813.76,170.78c.95,6.99-6.05,7.94-11.22,11.04,6.47,4.55,11.83,11.4,13.81,19.63,3.25,13.47-1.35,25.88-11.63,34.66,16.55-.48,23.05,4.99,25.17,13.74,3.38,14-14.46,28.3-40.01,34.47-25.02,6.04-43.23,1.92-46.82-12.96-1.31-5.42,1.06-12.48,9.29-14.46,15.92-3.84,19.55,22.69,35.69,18.98,9.32-2.06,13.09-9.45,10.97-18.2-1.82-7.52-5.53-12.18-10.77-12.4-1.88.64-4.11,1.36-6.21,1.87-24.5,5.91-45.98-4.08-51.01-24.91-5.36-22.22,8.68-41.53,33.87-47.61,11.02-2.66,18.97-2.73,34.72-6.53,11.37-2.74,13.72-1.46,14.17,2.69ZM784.28,237.34c5.95-1.44,8.1-7.88,5.9-16.98-3.5-14.52-17.28-38.6-27.78-36.07-5.6,1.35-7.79,7.62-5.55,16.89,4.22,17.5,17.98,38.43,27.43,36.15Z"></path>
      <path class="cls-1" d="M308.28,526.5c-1.77-7.35.85-13.35,9.6-15.46,18.94-4.39,23.29,29,49.54,22.67,10.15-2.45,15.31-9.44,13.12-18.53-8.24-34.12-71.59,4.13-84.13-47.09-5.36-22.22,9.42-42.27,38.3-49.24,29.04-7.01,54.11,3.24,57.77,19.2,1.86,7.7-1.29,13.83-10.21,15.98-21.17,5.11-23.64-28.92-45.34-23.68-11.02,2.66-14.63,10.75-12.56,19.32,9.04,37.44,72.17-.94,84,48.05,5.57,23.1-13.48,41.58-39.37,47.83-32.02,7.73-56.94-3.48-60.7-19.05Z"></path>
      <path class="cls-1" d="M498.26,485.83c1.97,9.71-6.09,29.99-29.01,35.52-25.37,6.12-47.48-7.24-53.9-33.84-6.25-25.9,9.69-48.07,32.61-53.61,22.92-5.53,36.54,4.88,39.2,15.91,1.27,5.25-.69,9.42-4.21,12.49l-30.09,28c6.28,6.08,14.12,8.63,22.69,6.56,7.52-1.82,13.5-6.96,15.64-11.92,1.86-3.04,6.31-3,7.06.89ZM439.59,464.44c1.65,6.82,4.04,12.91,7.06,17.74l13.91-13.73c2.33-2.6,3.28-6.35,2.4-10.02-1.35-5.6-7.15-17.35-16.07-15.19-7.17,1.73-9.74,11.05-7.29,21.2Z"></path>
      <path class="cls-1" d="M570.25,422.72c2.11,8.75.64,17.25-9.5,19.7-15.92,3.84-12.72-14.33-21.47-12.22-5.6,1.35-4.28,10.66-2.42,18.36l7.85,32.54c1.94,8.05,11.72,7.91,12.91,12.81l.17.7c.51,2.1-.95,3.75-3.4,4.34l-37.62,9.08c-2.45.59-4.5-.21-5-2.31l-.17-.7c-1.18-4.9,5.31-8.69,3.37-16.74l-8.4-34.82c-1.98-8.22-10.55-6.9-11.78-11.97l-.13-.53c-.51-2.1.51-4.01,2.8-6.05l21.88-17.5c4.04-3.2,6.38-1.17,7.23,2.33l3.08,12.77c1.15-12.13,7.89-20.24,19.96-23.15,10.32-2.49,18.26,3.55,20.63,13.35Z"></path>
      <path class="cls-1" d="M680.98,463.4c1.1,4.55-8.75,8.22-18.38,10.55-10.5,2.53-16.08,1.66-19-4.3-2.45,5.96-8.48,11.67-20.03,14.46-18.72,4.52-35.14-.59-39.49-18.61-4.27-17.67,8.41-30.36,25.03-34.37,7.35-1.77,13.72-1.46,18.73.11l-.13-.53c-7.08-20.14-10.46-28.77-19.56-26.57-12.07,2.91-1.51,25.18-17.09,28.94-7.35,1.77-13.35-1.59-14.99-8.42-3.46-14.35,12.21-24.61,30.05-28.92,23.45-5.66,43.01,4.06,51.05,25.08l11.41,30.39c4.57,12.04,11.2,7.3,12.39,12.19ZM637.1,458.06l-2.64-7.88c-3.76-10.2-9.28-13.13-14.35-11.9-5.25,1.27-7.78,6.88-6.05,14.05,3,12.42,9.81,22.26,16.99,20.53,5.77-1.39,7.49-8.85,6.06-14.79Z"></path>
      <path class="cls-1" d="M685.76,434.84l-10.01-41.47-6.65,1.6c-2.27.55-4.45-.78-5-3.05l-.93-3.85c-.59-2.45.6-4.4,3.05-5l3.32-.8c10.67-2.58,17.38-11.6,17.08-22.82-.15-2.93,1.35-5.14,3.63-5.69l4.02-.97c2.8-.68,5.15.61,5.82,3.41l4.26,17.67,18.02-4.35c2.27-.55,4.45.78,5,3.05l.93,3.85c.55,2.27-.78,4.45-3.05,5l-18.02,4.35,10.13,41.99c1.44,5.95,5.78,8.6,10.16,7.55,6.82-1.65,8.82-5.65,9.98-9.26,1.69-3.74,6.14-3.7,6.95-.38,3.25,13.47-3.3,30.05-22.37,34.65-17.32,4.18-31.22-4.31-36.33-25.49Z"></path>
    </g>
  </g>
</svg>
