<?xml version="1.0" encoding="UTF-8"?>
<svg xmlns="http://www.w3.org/2000/svg" id="Layer_1" data-name="Layer 1" viewBox="0 0 1080 1080">
  <defs>
    <style>
      .cls-1 {
        fill: #231f20;
      }

      .cls-2 {
        fill: #f2bcc5;
      }
    </style>
  </defs>
  <path class="cls-2" d="M994.6,540.5c44.71-44,70.34-95.1,70.4-149.65.18-165.38-234.65-299.71-524.51-300.02C250.64,90.51,15.51,224.32,15.33,389.7c-.06,54.54,25.46,105.7,70.07,149.8-44.71,44-70.34,95.1-70.4,149.65-.18,165.38,234.65,299.71,524.51,300.02,289.86.32,524.98-133.49,525.16-298.87.06-54.54-25.46-105.7-70.07-149.8Z"></path>
  <g>
    <path class="cls-1" d="M215.62,374.26c.08-69.98,51.38-111.97,103.86-111.91,51.87.06,90.21,25.57,90.17,56.88-.02,15.04-9.85,24.85-24.58,24.83-39.59-.04-44.75-59.9-79.43-59.94-21.79-.02-35.93,22.67-35.97,53.67-.07,60.77,31.49,110.53,69.55,110.57,7.67,0,13.2-1.21,17.5-3.05l.04-40.21c.01-14.43-17.17-17.82-17.16-26.41v-1.23c0-3.68,3.69-6.13,7.99-6.13l68.44.38c4.6,0,7.36,2.46,7.36,6.15v1.23c-.01,8.59-14.75,11.95-14.76,26.38l-.04,35.6c0,8.9-2.47,14.73-12.92,23.01-13.52,10.73-37.78,22.06-68.77,22.02-65.99-.07-111.35-54.14-111.29-111.84Z"></path>
    <path class="cls-1" d="M604.99,475.05c0,8.29-11.98,10.12-31.62,10.1-19.03-.02-27.31-4.63-28.83-17.83-7.99,12.27-22.43,19.01-43.3,18.98-31-.03-57.37-21.24-57.33-60.53l.06-51.26c.02-14.43-12.26-18.12-12.25-25.79v-1.23c0-3.38,2.77-6.44,7.07-7.05l45.74-6.09c8.9-1.22,14.42.63,14.42,6.15l-1.02,90.85c-.33,25.17,6.1,34.69,19.61,34.7,11.36.01,20.27-11.95,20.29-30.67l.07-60.77c.02-14.43-12.26-18.12-12.25-25.79v-1.23c0-3.38,2.77-6.44,7.07-7.05l45.74-6.09c8.9-1.22,13.5.63,13.5,6.15l-.12,108.96c-.03,24.86,13.18,12.91,13.17,25.49Z"></path>
    <path class="cls-1" d="M616.65,477.52v-1.23c.01-8.9,11.99-12.26,12-26.38l.15-140.26c.01-14.43-11.95-18.43-11.94-26.1v-1.23c0-3.38,2.77-4.91,6.76-7.05l46.37-22.66c8.6-4.29,14.12.94,14.11,6.46l-.21,190.91c-.01,14.12,13.49,17.51,13.48,26.41v1.23c0,3.68-3.08,5.83-7.37,5.82l-66.29-.07c-4.3,0-7.06-2.16-7.05-5.84Z"></path>
    <path class="cls-1" d="M872.32,475.34c0,7.98-17.81,10.11-34.69,10.09-18.42-.02-27.31-3.71-29.76-14.77-6.46,8.9-18.74,15.94-39,15.92-32.84-.04-57.99-15.1-57.96-46.72.03-31,26.14-46.93,55.3-46.9,12.89.01,23.32,3.09,30.99,7.71v-.92c-3.64-36.22-5.77-51.88-21.73-51.89-21.18-.02-12.63,41.11-39.95,41.08-12.89-.01-21.47-8-21.46-19.97.03-25.17,30.12-35.88,61.42-35.84,41.13.04,69.65,24.02,74.51,62.08l6.69,54.95c2.74,21.79,15.63,16.59,15.63,25.19ZM801.75,448.87l-1.21-14.12c-2.13-18.42-10.1-25.49-19-25.5-9.21-.01-15.66,8.27-15.68,20.85-.02,21.79,7.32,40.83,19.91,40.84,10.13.01,15.97-11.65,15.98-22.08Z"></path>
  </g>
  <g>
    <path class="cls-1" d="M344.63,810.71v1.15c0,3.44-2.58,5.44-6.88,5.44l-74.19-.08c-4.01,0-6.59-2.01-6.58-5.45v-1.15c.01-8.02,16.91-11.44,12.35-24.62l-6.28-17.77-72.76-.08-6.32,17.75c-4.6,13.17,12.3,16.63,12.29,24.65v1.15c0,3.44-2.58,5.44-6.88,5.44l-42.39-.05c-4.3,0-6.87-2.01-6.87-5.45v-1.15c.01-8.02,10.61-9.44,16.64-24.62l53.72-138.59c4.31-11.17-10.58-20.06-10.57-26.94v-1.15c0-3.44,2.58-5.44,6.59-5.44l36.67.04c10.03.01,15.75,4.31,19.75,13.77l65.14,158.48c6,14.9,16.6,16.63,16.59,24.65ZM255.32,746.74l-28.56-79.95-28.73,79.89,57.29.06Z"></path>
    <path class="cls-1" d="M348.35,811.86v-1.15c.01-8.31,11.19-11.45,11.2-24.62l.14-130.91c.01-13.46-11.15-17.2-11.14-24.36v-1.15c0-3.15,2.58-4.58,6.31-6.58l43.28-21.15c8.03-4,13.18.88,13.17,6.03l-.19,178.18c-.01,13.18,12.59,16.34,12.58,24.65v1.15c0,3.44-2.87,5.44-6.88,5.44l-61.88-.07c-4.01,0-6.59-2.01-6.58-5.45Z"></path>
    <path class="cls-1" d="M586.97,809.83c0,7.45-16.63,9.44-32.38,9.42-17.19-.02-25.49-3.47-27.77-13.78-6.02,8.3-17.49,14.88-36.4,14.85-30.65-.03-54.12-14.09-54.09-43.6.03-28.93,24.4-43.8,51.61-43.77,12.03.01,21.77,2.89,28.93,7.19v-.86c-3.4-33.81-5.39-48.42-20.29-48.43-19.77-.02-11.79,38.37-37.28,38.34-12.03-.01-20.04-7.47-20.03-18.64.02-23.49,28.11-33.48,57.33-33.45,38.39.04,65,22.41,69.55,57.94l6.25,51.28c2.56,20.34,14.59,15.48,14.58,23.51ZM521.11,785.13l-1.13-13.18c-1.99-17.19-9.43-23.79-17.73-23.8-8.59,0-14.62,7.72-14.63,19.46-.02,20.34,6.83,38.11,18.58,38.12,9.45.01,14.91-10.87,14.92-20.61Z"></path>
    <path class="cls-1" d="M847.07,811.55v1.15c0,3.44-2.87,5.44-6.88,5.44l-57.29-.06c-4.01,0-6.87-2.01-6.87-5.45v-1.15c0-8.02,11.19-11.73,10.34-24.91l-2.81-50.71c-1.4-28.93-7.4-39.54-19.72-39.55-11.74-.01-17.77,11.44-17.79,27.19.57,4.01.85,7.73.85,12.03l-.06,50.99c-.01,13.18,10.29,16.91,10.29,24.93v1.15c0,3.44-2.87,5.44-6.88,5.44l-57-.06c-4.3,0-6.87-2.01-6.87-5.45v-1.15c0-8.02,10.04-11.73,10.05-24.91l.06-54.43c.03-24.35-7.41-35.82-19.44-35.83-13.18-.01-19.2,11.72-19.22,27.19l-.07,63.02c-.01,13.18,12.58,16.91,12.58,24.93v1.15c0,3.44-2.58,5.44-6.88,5.44l-61.87-.07c-4.3,0-6.87-2.01-6.87-5.45v-1.15c0-8.02,12.62-11.73,12.63-24.91l.06-56.43c.01-13.46-15.16-15.48-15.16-23.79v-.86c0-3.44,2.87-5.15,6.88-7.15l42.99-19.72c7.16-3.43,10.88,1.16,10.88,6.89v10.31c8.31-11.45,21.78-18.31,38.11-18.29,19.77.02,36.94,8.06,46.95,23.54,7.75-14.89,23.51-23.46,42.42-23.44,24.64.03,49.26,13.8,52.64,60.21l3.67,48.99c.84,13.18,10.29,16.91,10.29,24.93Z"></path>
    <path class="cls-1" d="M858.53,812.42v-1.15c.01-8.31,11.47-11.73,11.49-24.91l.06-54.43c.01-13.18-11.44-17.2-11.43-24.08v-1.15c0-3.15,2.58-4.58,6.6-6.58l43.28-21.15c8.03-4,12.89.59,12.89,6.03l-.11,101.41c-.01,13.18,12.87,16.63,12.86,24.94v1.15c0,3.44-2.87,5.44-7.17,5.44l-61.59-.07c-4.3,0-6.87-2.01-6.87-5.45ZM863.31,634.82c.02-16.33,13.21-28.63,32.97-28.61,19.48.02,32.64,12.35,32.63,28.68-.02,16.04-13.21,28.63-32.69,28.61-19.77-.02-32.93-12.64-32.91-28.68Z"></path>
  </g>
</svg>
