<?xml version="1.0" encoding="UTF-8"?>
<svg xmlns="http://www.w3.org/2000/svg" id="Layer_1" data-name="Layer 1" viewBox="0 0 1080 1080">
  <defs>
    <style>
      .cls-1 {
        fill: #231f20;
      }

      .cls-2 {
        fill: #74a580;
      }
    </style>
  </defs>
  <path class="cls-2" d="M483.4,1049.95l-357.6-207.14c-34.54-20.01-55.79-56.93-55.73-96.85l.59-413.26c.06-39.92,21.41-76.78,56.01-96.69L484.86,29.89c34.6-19.91,77.2-19.85,111.74.16l357.6,207.14c34.54,20.01,55.79,56.93,55.73,96.85l-.59,413.26c-.06,39.92-21.41,76.78-56.01,96.69l-358.19,206.12c-34.6,19.91-77.2,19.85-111.74-.16Z"></path>
  <g>
    <g>
      <path class="cls-1" d="M513.26,426.91c-.15,103.68-42.02,183.3-141.86,183.16-61.92-.09-115.15-35.2-115.09-76.96.04-25.44,18.78-39.81,41.82-39.78,58.08.08,45,83.58,79.56,83.63,28.8.04,42.31-46.98,45.28-114.66-13.94,12.94-34.11,20.11-59.55,20.08-54.72-.08-111.8-28.96-111.68-110.56.1-69.12,55.84-112.24,125.44-112.14,79.2.11,136.22,66.91,136.08,167.23ZM422.1,403.74c-4.24-56.65-21.44-110.91-56-110.96-18.72-.03-30.74,15.32-30.78,44.6-.06,43.68,16.64,111.86,52.16,111.91,23.52.03,34.58-17.71,34.62-45.55Z"></path>
      <path class="cls-1" d="M544.45,436.56c.15-106.56,60.25-176.55,154.81-176.42,86.88.12,155.42,71.26,155.27,177.34-.15,107.52-72.25,173.18-155.29,173.06-84.96-.12-154.94-66.94-154.79-173.98ZM759.91,476.7c.12-82.56-26.62-182.92-72.7-182.98-29.76-.04-48.53,35.93-48.64,110.81-.12,84.96,27.59,173.8,73.67,173.86,28.32.04,47.56-32.09,47.66-101.69Z"></path>
    </g>
    <g>
      <path class="cls-1" d="M398.18,815.44v.72c0,2.16-1.63,3.42-4.33,3.41l-44.46-.06c-2.52,0-4.14-1.27-4.13-3.43v-.72c0-5.04,10.27-7.37,5.6-15.29l-25.14-42.51-14.06,14.2-.04,27.9c-.01,8.28,7.9,10.63,7.9,15.67v.72c0,2.16-1.63,3.42-4.33,3.41l-39.24-.06c-2.52,0-4.32-1.27-4.31-3.43v-.72c0-5.04,7.21-7.37,7.22-15.65l.12-88.38c.01-8.28-7.18-10.45-7.18-15.49v-.72c0-2.16,1.81-3.42,4.33-3.41l39.24.06c2.7,0,4.32,1.27,4.32,3.43v.72c0,5.04-7.93,7.19-7.94,15.47l-.06,41.04,39.84-40.8c6.85-7.01-1.24-10.62-1.24-15.66v-.72c0-2.16,1.63-3.42,4.33-3.41l29.34.04c2.52,0,4.32,1.27,4.32,3.43v.72c0,5.04-9.37,7.55-17.12,15.64l-23.25,23.54,38.07,64.67c5.93,10.09,12.22,10.64,12.22,15.68Z"></path>
      <path class="cls-1" d="M493.4,814.85c0,4.68-10.45,5.92-20.35,5.91-10.8-.02-16.02-2.18-17.45-8.67-3.79,5.21-10.99,9.34-22.87,9.33-19.26-.03-34.01-8.87-33.98-27.41.03-18.18,15.34-27.52,32.44-27.49,7.56.01,13.68,1.82,18.17,4.53v-.54c-2.13-21.24-3.38-30.42-12.74-30.44-12.42-.02-7.41,24.11-23.43,24.09-7.56-.01-12.59-4.7-12.58-11.72.02-14.76,17.67-21.03,36.03-21.01,24.12.03,40.84,14.1,43.69,36.42l3.91,32.22c1.6,12.78,9.17,9.73,9.16,14.77ZM452.02,799.31l-.71-8.28c-1.25-10.8-5.92-14.95-11.14-14.96-5.4,0-9.19,4.85-9.2,12.23-.02,12.78,4.29,23.95,11.67,23.96,5.94,0,9.37-6.83,9.38-12.95Z"></path>
      <path class="cls-1" d="M497.18,816.3v-.72c0-5.22,7.03-7.19,7.04-15.47l.12-82.26c.01-8.46-7-10.81-7-15.31v-.72c0-1.98,1.62-2.88,3.97-4.13l27.2-13.28c5.04-2.51,8.28.55,8.27,3.79l-.16,111.96c-.01,8.28,7.91,10.27,7.9,15.49v.72c0,2.16-1.81,3.42-4.33,3.41l-38.88-.05c-2.52,0-4.14-1.27-4.13-3.43Z"></path>
      <path class="cls-1" d="M551.78,776.42c.04-26.64,22.92-44.79,48.66-44.75,27,.04,49.29,18.79,49.25,45.25-.04,26.28-21.84,44.79-48.12,44.75-27.54-.04-49.83-19.15-49.79-45.25ZM616.92,790.73c.02-14.04-7.31-50.23-21.53-50.25-8.64-.01-11.71,7.9-11.73,22.48-.02,14.58,7.13,49.87,21.71,49.89,8.46.01,11.53-8.62,11.55-22.12Z"></path>
      <path class="cls-1" d="M735.41,749.68c-.01,9-3.44,16.91-13.88,16.9-16.38-.02-8.98-16.93-17.98-16.94-5.76,0-6.67,9.35-6.68,17.27l-.05,33.48c-.01,8.28,9.52,10.45,9.52,15.49v.72c0,2.16-1.81,3.42-4.33,3.41l-38.7-.05c-2.52,0-4.32-1.27-4.32-3.43v-.72c0-5.04,7.21-7.19,7.22-15.47l.05-35.82c.01-8.46-8.63-9.19-8.62-14.41v-.54c0-2.16,1.45-3.78,4.15-5.21l25.4-11.84c4.68-2.15,6.48.37,6.47,3.97l-.02,13.14c3.98-11.51,12.45-17.8,24.86-17.78,10.62.02,16.91,7.76,16.89,17.84Z"></path>
      <path class="cls-1" d="M740.36,816.64v-.72c0-5.22,7.21-7.37,7.22-15.65l.05-34.2c.01-8.28-7.18-10.81-7.18-15.13v-.72c0-1.98,1.62-2.88,4.15-4.13l27.2-13.28c5.04-2.51,8.1.37,8.09,3.79l-.09,63.72c-.01,8.28,8.08,10.45,8.08,15.67v.72c0,2.16-1.81,3.42-4.51,3.41l-38.7-.06c-2.7,0-4.32-1.27-4.31-3.43ZM743.4,705.05c.01-10.26,8.31-17.99,20.73-17.97,12.24.02,20.51,7.77,20.49,18.03-.01,10.08-8.3,17.99-20.54,17.97-12.42-.02-20.69-7.95-20.67-18.03Z"></path>
    </g>
  </g>
</svg>
