<svg xmlns="http://www.w3.org/2000/svg" viewBox="0 0 2000 1125"><rect width="2000" height="1125" fill="#5e99d6"/><path d="M-103.87,397.05c-34.5,6.83-63.81,58.77-49.41,85.5,6.43,11.94,20.09,16.07,31.41,19.5,36,10.89,58.59-8.38,86.69,8.4,5.82,3.48,3.27,3.36,12.81,10.1,9,6.37,32.09,22.67,60,25,30.09,2.51,35.82-13.72,55.5-5.5,11.21,4.69,15.36,11.25,32.27,17.56,5.57,2.08,12.39,3.44,21.73,3.44,30,0,37-15,63-17s29,14,52,15,56-29,70-40,44-2,71-7,66-74,5-97-51-8-73-29-69-60-115-44c-7.08,2.46-18.91,7.74-31.44,3.27-5.38-1.91-7.5-4.46-15.06-6.77a57.54,57.54,0,0,0-22-2c-14.2,1.05-17.48,5.54-37.95,9a55.86,55.86,0,0,1-11.55,1.52c-21.56,0-38.09-1.92-44.07-3-23.74-4.21-46.77,7.46-76.43,22.48C-47.5,381.3-59,395-86.72,396.78-96.78,397.41-97.13,395.72-103.87,397.05Z" fill="#fff" stroke="#000" stroke-miterlimit="10" stroke-width="3"/><path d="M1587.63,324.55c-25.51,13.51-39.11,57.48-22.91,82,8.08,12.24,21.45,16.48,31.41,19.5,36,10.89,58.59-8.38,86.69,8.4,5.82,3.48,3.27,3.36,12.81,10.1,9,6.37,32.09,22.67,60,25,30.09,2.51,35.82-13.72,55.5-5.5,11.21,4.69,15.36,11.25,32.27,17.56,5.57,2.08,12.39,3.44,21.73,3.44,30,0,37-15,63-17s29,14,52,15,56-29,70-40,44-2,71-7,66-74,5-97-51-8-73-29-69-60-115-44c-7.08,2.46-18.91,7.74-31.44,3.27-5.38-1.91-7.5-4.46-15.06-6.77a57.54,57.54,0,0,0-22-2c-14.2,1.05-17.48,5.54-38,9a55.86,55.86,0,0,1-11.55,1.52c-21.56,0-38.09-1.92-44.07-3-23.74-4.21-46.77,7.46-76.43,22.48-40.16,20.34-43.41,26.42-68.35,30.23C1606.58,324.55,1601,317.49,1587.63,324.55Z" fill="#fff" stroke="#000" stroke-miterlimit="10" stroke-width="3"/><path d="M686.36,128.37c-26.87,5.31-49.68,45.75-38.47,66.56,5,9.3,15.64,12.52,24.45,15.19,28,8.48,45.62-6.53,67.49,6.54,4.53,2.7,2.55,2.61,10,7.86,7,5,25,17.65,46.71,19.46,23.43,2,27.89-10.68,43.21-4.28,8.73,3.65,12,8.76,25.13,13.68a47.43,47.43,0,0,0,16.91,2.67c23.36,0,28.81-11.68,49.05-13.23s22.58,10.89,40.49,11.67,43.6-22.57,54.5-31.14,34.25-1.56,55.27-5.45,51.39-57.61,3.9-75.52-39.71-6.23-56.84-22.58-53.72-46.71-89.53-34.25c-5.51,1.91-14.73,6-24.48,2.55-4.19-1.5-5.84-3.48-11.72-5.28a45,45,0,0,0-17.13-1.56c-11.06.82-13.61,4.31-29.55,7a42.86,42.86,0,0,1-9,1.19,223.24,223.24,0,0,1-34.31-2.32c-18.48-3.28-36.41,5.8-59.51,17.5-22.67,11.49-31.65,22.18-53.21,23.53C691.88,128.65,691.61,127.33,686.36,128.37Z" fill="#fff" stroke="#000" stroke-miterlimit="10" stroke-width="3"/></svg>