<svg id="LOGO" xmlns="http://www.w3.org/2000/svg" width="302.976" height="53" viewBox="0 0 302.976 53">
  <path id="Path_74" data-name="Path 74" d="M1306.324,495.853c5.66.069,12.144.345,15.663.69V483.915c-3.519.414-10,.552-15.663.621v-4.761c6.142.138,12.9.414,18.078.759l.621-15.387h-39.331c.415,3.726.552,7.453.621,11.179v28.981c-.069,3.726-.206,7.452-.621,11.178h39.815V499.993c-4.555.483-11.937.828-19.184.966Z" transform="translate(-1022.532 -464.312)" fill="#fff"/>
  <path id="Path_75" data-name="Path 75" d="M1166.264,465.13c-2.622-.207-13.179-.069-17.734-.069h-11.454c.414,3.726.552,7.452.621,11.179V505.22c-.069,3.726-.207,7.452-.621,11.178h20.493c21.529-.207,28.153-10.626,28.153-26.5C1185.722,474.1,1180.823,466.372,1166.264,465.13Zm-5.589,35.6c-.9,0-2.208.069-3.036,0l.069-21.114a23.8,23.8,0,0,1,3.8-.276c3.381,0,4.209,3.381,4.209,10.005C1165.712,495.836,1165.091,500.045,1160.675,500.735Z" transform="translate(-924.872 -464.226)" fill="#fff"/>
  <path id="Path_76" data-name="Path 76" d="M1061.393,516.484h21.184c-.414-3.726-.552-7.452-.621-11.178V476.325c.069-3.726.207-7.452.621-11.179h-21.184c.414,3.726.552,7.453.621,11.179v28.981c-.069,3.726-.207,7.452-.621,11.178" transform="translate(-875.139 -464.312)" fill="#fff"/>
  <path id="Path_77" data-name="Path 77" d="M931.117,514.609c5.451.552,15.249,1.1,20.976,1.035,13.87-.138,20.149-5.106,20.149-17.251,0-7.8-3.381-12.144-13.386-14.214l-4.623-1.035c-1.449-.345-2.346-.621-2.346-1.932,0-1.518.9-2.07,2.346-2.07,3.795,0,10.488,1.449,16.422,2.9l.9-18.354c-6.831-.552-13.041-1.035-18.7-.966-15.042.138-21.46,4.968-21.46,15.87,0,9.729,2.967,14.629,13.11,16.491l6.555,1.311c2.277.414,2.553.759,2.553,2,0,.966-.69,1.449-3.45,1.449a47.806,47.806,0,0,1-18.354-4.83Z" transform="translate(-789.532 -462.713)" fill="#fff"/>
  <path id="Path_78" data-name="Path 78" d="M798.825,483.778c4-.207,7.59-.414,11.178-.552v21.942c-.069,3.726-.207,7.452-.621,11.179h21.253c-.414-3.726-.552-7.452-.621-11.179V483.226c3.933.138,7.59.345,11.109.552V465.147h-42.3Z" transform="translate(-702.601 -464.312)" fill="#fff"/>
  <path id="Path_79" data-name="Path 79" d="M702.881,465.147H678.73c-4.623,17.113-8.694,34.225-12.834,51.337h17.388c.276-1.863.69-4.071,1.173-6.486h10.074c.414,2.415.828,4.623,1.1,6.486h20.286C711.782,499.372,707.366,482.26,702.881,465.147ZM687.01,497.44c.9-3.933,1.794-7.728,2.622-11.109h.138c.759,3.381,1.587,7.176,2.415,11.109Z" transform="translate(-615.249 -464.312)" fill="#fff"/>
  <path id="Path_80" data-name="Path 80" d="M544.2,462.732c-17.182,0-26.014,8.832-26.014,26.428,0,17.734,8.832,26.566,26.014,26.566,17.112,0,26.013-8.832,26.013-26.566C570.214,471.564,561.313,462.732,544.2,462.732Zm0,37.606c-4.278,0-5.313-3.588-5.313-11.178,0-7.452,1.035-11.109,5.313-11.109s5.313,3.657,5.313,11.109C549.514,496.75,548.479,500.338,544.2,500.338Z" transform="translate(-518.187 -462.725)" fill="#fff"/>
</svg>
